<?xml version='1.0' encoding='utf-8'?>
<svg xmlns="http://www.w3.org/2000/svg" version="1.1" width="600px" height="976px" viewBox="0 0 600 976"> <g id="layer1"> <g style="fill:rgb(0,0,0); fill-opacity:1.0; stroke-linejoin: miter"> <path d="M336.28784,432.0442Q337.17798,432.0548,338.3452,432.2227L338.3442,432.2227Q338.0626,432.25232,337.77045,432.25232Q337.68393,432.25232,337.59647,432.24973Q336.9374,432.22314,336.28683,432.0442 Z M336.71576,443.7125L336.42722,443.8694Q336.41162,443.94128,336.44458,443.94128Q336.5034,443.94128,336.71677,443.7125 Z M259.76645,496.0762Q259.76804,496.07867,259.76962,496.08112L259.76938,496.08112Q259.15854,497.0498,259.04083,498.16135Q258.98584,498.7128,259.03085,499.4408Q259.0365,499.53696,259.04413,499.64197L259.04413,499.64197Q258.74554,499.21295,258.69244,498.89294Q258.42358,498.27713,259.7432,496.11584L259.76645,496.0762 Z M254.15564,507.94647Q253.815,508.04706,253.71527,508.10388Q253.57648,508.17627,253.55586,508.2484L254.152,507.9485L254.1558,507.94647 Z M254.40512,511.21866Q254.44756,511.24765,254.49419,511.27393L254.49402,511.27393L254.4778,511.277Q254.42218,511.28595,254.37975,511.29022L254.37975,511.29022Q254.39233,511.25568,254.40494,511.21866 Z M260.37912,512.92224Q260.3981,512.942,260.42233,512.9545Q260.3941,512.95734,260.36688,512.9607L260.36688,512.9607Q260.37314,512.9415,260.37888,512.92224 Z M260.7286,512.8107L260.735,512.8639L260.73474,512.8639Q260.57855,512.97107,260.55524,512.97107Q260.55362,512.97107,260.55264,512.9706L260.7286,512.8107 Z M259.31616,512.7626L259.31616,512.7626Q259.32788,512.7926,259.341,512.81714Q259.35828,512.85236,259.38208,512.88544L259.48007,513.00836L259.5847,513.1498L259.5847,513.1498Q259.48727,513.06995,259.3912,513.02673Q259.344,513.0075,259.28754,512.9927L259.28732,512.9927Q259.28278,512.89764,259.2643,512.7778L259.2641,512.7778Q259.28973,512.7706,259.31592,512.7626 Z M259.68546,513.24146L259.68546,513.24146Q259.69568,513.24615,259.70648,513.2498L259.70624,513.2498Q259.70358,513.25366,259.70102,513.25757L259.70102,513.25757Q259.6931,513.2494,259.68524,513.24146 Z M254.00893,513.2306L254.03409,513.2556Q254.04189,513.2644,254.04898,513.2731L254.04898,513.2731Q254.02872,513.2517,254.00876,513.2306 Z M262.14935,514.58856L262.1501,514.843L262.14984,514.843Q262.10944,514.8485,262.06754,514.8543Q262.06284,514.8547,262.05853,514.8547Q262.0246,514.8547,262.01355,514.83215Q261.99036,514.79877,262.10245,514.6402Q262.1261,514.61426,262.1491,514.58856 Z M256.75558,514.98145L257.01947,514.9924L257.0193,514.9924Q257.02875,515.0378,257.04004,515.08264L257.03983,515.08264Q256.8879,515.1194,256.75793,515.18164L256.75793,515.18164Q256.75757,515.07837,256.75537,514.98145 Z M259.9346,515.1179L259.9346,515.1179Q259.93564,515.1197,259.9367,515.12146L259.9851,515.29266L259.9851,515.29266Q259.91953,515.2721,259.84628,515.256L259.84607,515.256Q259.8941,515.189,259.9344,515.1179 Z M260.43158,516.62134Q260.47162,516.6792,260.51758,516.7257L260.51758,516.7257Q260.44412,516.71045,260.3563,516.6955L260.35605,516.6955Q260.39957,516.6593,260.43134,516.62134 Z M256.2849,518.6169Q256.4672,518.7644,256.64502,518.8334L256.64484,518.8334Q256.4267,518.92413,256.26788,519.0443L256.28473,518.6169 Z M333.01987,476.80554Q333.5874,491.23242,335.58582,494.8148Q337.27698,498.20987,339.84164,498.20987Q341.21478,498.20987,342.83838,497.23657L344.64404,517.0014L346.5433,529.3058L346.5433,529.3058Q343.64233,528.6362,342.0216,528.57776Q341.85278,528.53046,341.3355,528.53046Q339.84338,528.53046,335.4518,528.9241Q335.18494,528.9284,334.94043,528.9284Q333.80017,528.9284,333.14594,528.83417Q330.89496,528.56134,328.177,527.42535Q325.06775,526.1589,319.82358,523.0969L302.9317,512.0901Q299.39734,509.87628,297.14313,509.09003Q296.28296,508.3653,289.9383,508.3653Q289.73462,508.3653,289.5253,508.36606Q289.2292,508.3462,288.86868,508.3462Q287.1034,508.3462,283.7936,508.82288Q282.73083,506.19556,285.0243,497.94952L285.02383,497.94952Q284.87152,498.0297,284.71613,498.08923L284.71613,498.08923Q284.79492,498.0125,284.87848,497.91895Q284.94806,497.88812,285.06015,497.88812Q285.1547,497.88812,285.27954,497.91006L285.8055,498.0591L286.5666,498.35193L290.3472,499.9993Q291.26764,500.35843,292.0207,500.53162Q294.19,500.97916,295.56653,500.97916Q296.61435,500.97916,297.2028,500.71985Q298.1773,500.3355,299.09738,498.92755Q301.0536,495.61813,304.083,491.01172L306.0044,487.7948Q307.19803,487.40933,307.7318,486.82895L307.7311,486.82895Q307.91736,486.8167,308.1051,486.7298Q308.23477,486.6726,308.38843,486.57556L309.0193,486.15295Q309.2073,486.051,309.34912,486.04477Q309.37244,486.04303,309.39606,486.04303Q309.5518,486.04303,309.72034,486.11774L310.39557,486.4892L310.73334,486.63977Q311.04718,486.7546,311.30008,486.77838Q311.39764,486.7884,311.49255,486.7884Q312.08643,486.7884,312.57523,486.39667Q312.84933,486.18216,313.17764,485.80728L314.47263,484.21698Q314.79712,483.83185,315.18143,483.44098Q315.67105,482.93454,316.5346,482.18347L316.5354,482.18347Q316.8932,482.63977,317.2651,482.90237Q317.5988,483.1426,318.00885,483.1426Q318.3798,483.1426,318.8133,482.94595L318.8141,482.94595L319.2406,483.9185Q326.58173,479.81595,333.01987,476.80554 Z M358.4867,521.4431L365.45282,534.3778Q365.989,535.93,366.46362,537.34045L366.46365,537.34045L357.70795,533.621L357.70673,533.621Q358.6091,525.62115,358.4855,521.4431 Z M284.89862,553.8567Q284.896,553.87317,284.9234,553.8978Q284.92236,553.8689,284.8991,553.8567 Z M330.82712,420.44427Q330.60187,420.44427,330.50055,420.50296Q326.56342,421.6893,324.11856,423.8446L324.11786,423.84525Q323.254,424.6357,323.0024,425.19476Q322.92047,425.36667,322.8816,425.5769Q322.86728,426.45306,322.7267,426.72562L322.49695,427.18118Q321.3412,428.88693,321.2416,429.21338Q321.05542,429.50903,320.55453,431.54175Q320.19067,433.20642,322.1387,434.48764Q322.54126,434.68134,322.7424,434.68134Q322.82568,434.68134,322.8744,434.64813Q322.9007,434.12137,323.62524,433.00858L323.6261,433.00858Q323.66147,433.59238,323.94492,434.3787Q324.4526,435.718,325.2182,436.7821Q325.44946,437.0888,325.6298,437.21783Q325.72516,437.32736,326.17816,437.3727Q326.26392,437.41583,326.31805,437.53015Q326.39087,437.67633,326.45712,437.99008Q326.82532,440.06317,326.92505,440.3216Q327.0981,440.94495,327.31723,441.08987Q327.39612,441.16986,327.51147,441.16986Q327.86725,441.16986,328.57,440.40866Q328.7862,441.2354,329.02615,441.45673Q329.21152,441.68005,329.8477,441.68005Q329.84824,441.68005,329.8488,441.68005L329.84973,441.68005Q329.7486,442.2913,329.92987,442.43762Q329.96048,442.47443,330.08252,442.50864Q330.89865,442.5531,331.0393,442.67276Q331.18774,442.76175,331.29013,442.87576Q331.89883,443.6643,332.09644,443.78412Q332.45215,444.0733,332.90463,444.11996Q332.95685,444.12463,333.00998,444.12463Q333.62372,444.12463,334.35986,443.5033Q334.81223,443.19574,335.5361,441.79883Q335.7054,441.5826,335.8778,441.513Q336.01572,441.45245,336.21268,441.45245Q336.7204,441.45245,337.62048,441.85468L337.61948,441.85468Q337.6176,441.86096,337.61572,441.86728L336.92038,441.6568L336.5932,442.67175L337.16266,443.19446L337.16162,443.19446Q336.8897,443.52692,336.71777,443.7114L336.71777,443.7114L336.83145,443.6496Q336.99094,443.80536,337.03143,444.01935L337.03046,444.01935Q336.9671,444.22647,336.89685,444.46194L336.89685,444.46194Q336.651,444.4321,336.43417,444.4321Q335.45642,444.4321,335.06738,445.03873L335.2939,445.89542L334.58102,446.73578L335.3723,446.8601Q334.0338,450.21036,333.98633,452.09296Q333.84525,452.74887,334.15454,458.1884Q332.97177,460.0892,332.53973,462.1851Q332.094,463.82336,332.17987,467.12265Q332.06378,467.7269,331.97137,467.74606L330.5664,468.4375Q329.41803,470.04193,327.8099,470.94995Q318.96762,475.618,316.36682,477.36517L316.41107,477.46606L316.41107,477.46606L314.78845,478.49857Q314.79633,478.52292,314.80423,478.5471L314.80347,478.5471Q314.41214,478.73108,314.0185,478.85904Q313.56842,479.01212,312.963,479.15298Q309.89084,479.77856,309.60748,479.88873Q308.6347,480.15973,308.27484,480.46674Q308.0352,480.65277,307.8796,480.92624Q307.81287,481.00342,307.53305,481.78287Q307.46155,481.94376,307.3791,482.0633Q307.3053,482.1742,307.1574,482.33517L307.1432,482.3499L307.1432,482.3499Q306.89038,482.24606,306.582,482.19397Q306.36493,482.17172,306.1604,482.17172Q305.04852,482.17172,304.30817,482.8296Q303.9088,483.22348,303.74237,483.75623Q303.37064,486.0457,303.1652,486.35724Q302.9101,487.01154,302.30136,487.88986Q301.53403,488.98877,300.45462,490.12753Q300.09216,490.55426,298.11783,492.2935Q297.63306,492.75668,297.18494,493.25262Q296.45538,494.04736,295.7079,495.2138Q293.31866,495.06592,291.47397,493.97314Q290.73907,493.55225,289.76892,492.85132Q286.3077,490.1242,284.67017,488.95612L284.66968,488.95612Q284.77777,488.86914,284.88843,488.7812L281.63147,486.91858L281.631,486.91858Q279.9189,484.27237,278.19055,482.2218Q278.04535,481.9252,278.00925,481.40533Q278.20547,478.35184,277.98203,477.99017Q277.7552,477.02463,276.6186,475.7321Q276.35226,473.12454,275.30252,471.3833Q274.67517,470.39236,273.75543,469.9163Q272.9073,469.4364,270.96686,468.97867Q270.49377,468.45715,270.00266,468.45715Q269.9624,468.45715,269.92203,468.46066L269.9095,468.46063Q269.25372,468.46356,268.53702,468.85306Q267.06494,470.0329,265.1244,471.04907Q264.63867,471.3773,264.29324,471.6952Q262.59222,473.31683,261.24615,476.30072Q260.96588,476.9772,260.9558,477.48737L261.3057,479.50983Q261.36438,480.16272,261.19583,481.1165Q261.23328,481.59305,259.2282,487.3092Q258.98645,488.08685,258.91473,488.75922Q258.84412,489.01077,258.9963,490.53494L258.60275,492.38153Q258.52734,492.77277,258.53766,493.18506Q258.49286,493.66406,259.2573,495.28174Q259.35504,495.62067,259.3183,495.82806Q259.29575,496.09216,259.05984,496.49017L258.1245,497.825Q257.90924,498.25272,257.89368,498.51727Q257.80405,499.04382,258.24905,499.68488Q258.31012,499.84003,259.1371,500.60367L259.13687,500.60367Q259.2945,502.05524,259.29855,502.19547Q259.34726,502.78314,259.34076,503.27515Q259.3324,503.91736,259.23044,504.61447Q259.2098,504.8647,258.8289,506.73096Q258.75455,507.16138,258.73276,507.45953Q258.73096,507.48334,258.7294,507.5069L258.7294,507.5069Q258.31845,507.2907,257.59348,507.2907Q257.58218,507.2907,257.57083,507.29077L257.56537,507.29083Q257.51242,507.39914,257.46805,507.50024L257.46805,507.50024Q257.4273,507.43152,257.40637,507.41742Q257.35065,507.35052,257.29608,507.3003L257.2959,507.3003Q257.4139,507.2928,257.5637,507.29083L257.85107,506.71545L257.85403,506.70953L257.1862,507.21533L257.1862,507.21533Q257.08014,507.14932,256.97867,507.14932Q256.97855,507.14932,256.9784,507.14932L256.97446,507.14938Q256.91782,507.15094,256.84842,507.17133L256.84842,507.17133L256.81326,506.8188Q256.7951,506.63947,256.697,506.49393Q256.5783,506.32126,256.47845,506.32126Q256.47803,506.32126,256.4776,506.32126L256.476,506.3213Q256.37778,506.33026,255.99838,506.4909Q255.65562,506.6371,255.58731,506.69836Q255.30083,506.90137,255.17105,507.2431Q255.08533,507.5279,255.12157,507.75397L255.12138,507.75397Q255.1208,507.7544,255.12022,507.75476L255.12189,507.75485L255.1217,507.75485Q255.12357,507.76648,255.12576,507.7779L255.12558,507.7779Q254.7679,507.77863,254.4464,507.867L254.49963,507.7765L254.50204,507.77228L254.15663,507.94614Q254.29828,507.90436,254.44511,507.8675L254.4453,507.8675Q254.12175,508.43216,253.97769,508.84995L253.97752,508.84995Q253.65654,508.87558,253.49043,509.0138Q253.3802,509.09894,253.32553,509.20068Q253.29425,509.23788,253.23856,509.4792L253.00449,509.75372Q252.89153,509.7552,252.81253,509.77438Q252.78497,509.77942,252.75807,509.81146Q252.72664,509.84882,252.70753,509.9428L252.6019,510.60513Q252.53842,511.14178,252.551,511.3962Q252.55429,511.57404,252.62239,511.7071L252.62222,511.7071Q252.58281,511.75623,252.50412,511.79892Q252.46019,511.82333,252.40327,511.8469Q252.13641,511.94476,252.02917,511.9965Q251.89627,512.0585,251.83281,512.1123Q251.62376,512.2834,251.59877,512.49365Q251.54817,512.8881,251.74474,513.3159Q251.97173,513.7984,252.26973,513.9662Q252.42319,514.05237,252.62584,514.05237Q252.69106,514.05237,252.76135,514.04346L252.76152,514.04346Q252.67451,514.4644,252.63892,515.1374Q252.60637,515.7334,252.74287,516.24176Q252.89803,516.79974,253.11745,517.01636Q253.40677,517.28406,253.80058,517.2927Q253.83296,517.2938,253.864,517.2938Q253.91293,517.2938,253.95853,517.29114L253.9587,517.29114Q253.95772,517.2956,253.9568,517.30005Q253.88672,517.81903,253.89487,517.81903L253.89493,517.81903Q253.88586,518.03656,253.91824,518.03656Q253.91846,518.03656,253.91867,518.03656Q253.93338,518.0349,253.96996,517.9935Q254.10928,517.81006,254.2092,517.70624Q254.31905,517.58813,254.40756,517.515Q254.5484,517.3997,254.68338,517.3237L254.68355,517.3237Q254.6818,517.3401,254.68062,517.35486Q254.63373,517.81006,254.80618,518.09595Q254.9723,518.3589,255.3313,518.4546Q255.38788,518.6206,255.4786,518.67395Q255.59314,518.7276,255.7261,518.7276Q255.91273,518.7276,256.13568,518.6218L256.13586,518.6218Q256.1222,518.6925,256.1292,518.69543Q256.09796,518.9788,256.16254,519.29846Q256.36075,520.1823,256.81937,520.4281Q257.0894,520.55255,257.3743,520.55255Q257.4213,520.55255,257.4687,520.5492Q257.7106,520.54004,258.04947,520.3185Q258.40222,520.0835,258.54755,519.6602L258.5473,519.6602Q258.6351,519.6489,258.71136,519.63574L258.71158,519.63574Q258.9536,519.77246,259.2341,519.8386Q259.54602,519.87616,259.7955,519.87616Q260.0811,519.87616,260.28482,519.827Q260.94815,519.6765,261.15436,519.447Q261.29446,519.2976,261.21564,518.8812Q261.19687,518.7454,260.99362,518.42004L260.99338,518.42004Q261.05444,518.4187,261.11353,518.4187Q261.20383,518.4187,261.2896,518.42175Q261.40378,518.4176,261.50168,518.4018L261.50192,518.4018Q261.81012,518.5553,262.27148,518.6202Q262.49292,518.65045,262.69113,518.65045Q262.99918,518.65045,263.25107,518.57733Q263.51968,518.49713,263.59937,518.29724Q263.7019,518.0913,263.72668,517.57605Q263.72235,517.35406,263.61786,516.9441Q263.59802,516.8737,263.51044,516.8312Q263.4701,516.8113,263.41263,516.7965L262.98535,516.69684Q262.91882,516.6831,262.83572,516.6831Q262.8158,516.6831,262.79492,516.6839Q262.71234,516.69165,262.63278,516.70447L262.63278,516.70447Q262.68124,516.6762,262.72418,516.645Q262.77838,516.58264,262.7952,516.506Q262.80945,516.4511,262.77457,516.3323Q262.7766,516.2824,262.80084,516.24664L263.16556,515.8994Q263.24756,515.8076,263.29266,515.69775Q263.44247,515.2413,263.38983,515.0314Q263.38785,515.0203,263.3856,515.0097L263.3853,515.0097Q263.5264,514.936,263.64203,514.8652L263.64178,514.8652Q263.68893,514.8476,263.7386,514.8269Q264.03354,514.69604,264.1807,514.54004Q264.45285,514.18317,264.43918,513.6473Q264.99557,513.3826,265.0154,512.9756Q265.01178,512.81116,264.85895,512.533Q264.65686,512.16925,264.54523,512.11676Q264.39645,512.02747,263.99982,511.96063Q263.7261,511.91208,263.53525,511.88547L263.53497,511.88547Q263.69562,511.5016,263.71255,510.97556Q263.72385,510.9063,263.6612,510.37698Q263.65204,510.3092,263.62546,510.24988Q263.49152,509.98514,263.2157,509.85797Q263.36612,509.2389,263.1031,508.81802L263.1028,508.81802Q263.60532,507.80176,263.79495,505.81985Q263.8616,505.16522,263.91132,504.44537L263.9116,504.44537Q263.91806,504.45142,263.92453,504.45782Q264.62143,505.19257,264.6769,506.2544Q264.67667,506.47632,264.5169,506.74094Q263.7474,507.54178,263.778,507.6479Q263.67023,507.9121,263.79813,508.34802Q264.54068,510.17618,265.54156,510.29938L266.1583,510.1304Q264.12427,508.6438,265.3583,507.2312Q265.5948,506.90466,266.09833,506.44543L266.09863,506.44543Q266.1653,506.6899,266.2329,506.9321L266.91418,513.4813Q266.9399,515.49915,264.65295,518.01434L261.09625,520.6213Q260.19583,521.16486,259.4108,521.32275Q258.43356,521.55493,256.80017,521.55493Q255.538,521.55493,253.88399,521.41626Q250.84822,519.98553,249.77649,519.98553Q249.56226,519.98553,249.4265,520.0427Q249.40076,520.0396,249.3699,520.0396Q248.56631,520.0396,244.30162,522.11554L242.93178,522.4894L240.62622,523.75366Q240.15648,523.95734,239.47205,524.0309L235.19855,523.7717Q232.93974,523.9679,231.69603,523.9679Q230.68387,523.9679,230.344,523.838Q225.4051,522.95825,220.94067,521.39105Q217.72185,521.8633,215.20514,522.8456Q215.20078,522.84534,215.19623,522.84534Q214.72107,522.84534,212.22174,525.2551Q211.68022,525.65015,210.75066,525.835Q210.35858,525.8857,209.98149,525.8857Q209.38583,525.8857,208.8276,525.7592L204.53677,524.7313L202.47148,526.0888L202.13211,527.78735L200.18661,528.52155L198.78766,530.60846L197.46944,534.8059L199.03499,535.674Q198.53374,537.80646,199.15282,538.4577L200.41177,538.36414Q200.6798,539.3344,201.49239,539.41876Q200.1969,540.8523,200.95619,542.2861Q201.03647,542.4252,201.29767,542.51794Q203.56885,542.6546,203.41246,542.84796Q203.75644,544.9216,204.73537,545.2439Q205.0373,545.5121,205.66495,545.5121Q206.40959,545.5121,207.61273,545.1346Q207.64685,545.1097,207.70169,545.1097Q208.1415,545.1097,209.9138,546.7119Q210.85704,546.3801,211.45525,546.3801Q211.85558,546.3801,212.1014,546.5287Q212.11497,546.5244,212.12965,546.5244Q212.51746,546.5244,213.6691,549.50555Q214.6134,550.51575,215.51775,550.6841L218.49348,550.62823L220.86191,551.37085Q221.6466,550.8788,222.0883,550.8788Q222.21387,550.8788,222.31172,550.9186Q223.788,551.9712,227.24,552.0311Q229.76086,551.6516,230.6063,551.6516Q231.02998,551.6516,231.03288,551.74695Q240.46262,554.7777,241.70471,555.6952L243.45988,555.4394Q244.93286,556.272,245.62537,556.272Q245.68523,556.272,245.73926,556.2658Q245.79654,556.27563,245.91158,556.27563Q246.80418,556.27563,251.17456,555.6839Q252.32155,556.4916,252.99422,556.54956Q254.1006,556.3075,254.99304,556.3075Q255.45222,556.3075,255.85477,556.3716Q255.87338,556.3712,255.89214,556.3712Q257.13388,556.3712,258.9514,558.03394L263.16815,559.3749Q266.03857,558.7814,266.5249,558.7814Q266.57596,558.7814,266.60074,558.78796Q268.88858,559.15283,269.9444,559.15283Q270.5223,559.15283,270.7311,559.0435L272.25687,558.1062Q274.91156,558.0298,275.8964,557.4984L279.08008,555.6098Q279.1783,555.49976,279.4951,555.49976Q279.95816,555.49976,280.88828,555.7349Q280.93628,555.7519,281.01013,555.7519Q281.25073,555.7519,281.76575,555.5716Q284.45294,553.8478,284.85336,553.8478Q284.88177,553.8478,284.89868,553.85645L284.89868,553.85645Q284.90445,553.82324,285.03308,553.82324Q285.88965,553.82324,292.19406,555.29706L295.05057,555.0859Q297.93994,555.5228,300.5093,555.5228Q301.56674,555.5228,302.56995,555.44885L305.24695,556.1053Q305.3064,556.157,305.41772,556.157Q305.85367,556.157,307.08533,555.364Q307.61884,555.1836,308.29315,555.11194L316.9064,554.9591Q318.1308,554.9313,322.21988,554.1525Q325.41415,554.57135,330.88425,554.57135Q333.41653,554.57135,336.43658,554.4816Q339.63843,554.11725,341.44128,552.4985L343.71246,552.5963L345.2093,552.2245L345.2093,552.2245L345.14496,552.45044Q337.55344,556.3884,333.43045,556.80225Q332.62048,557.23596,333.85226,558.075Q335.73517,559.2556,339.32568,559.72314Q340.4723,559.83923,341.752,559.83923Q345.4081,559.83923,350.1503,558.8917L350.81296,560.0164L355.94638,560.54443Q356.38916,559.71875,356.32623,558.91876Q355.4391,553.7582,355.59515,552.9949L356.14468,550.683Q356.15814,550.2034,355.7882,549.3342L355.78705,549.3342Q357.11194,548.5615,357.84146,547.9437L360.90192,546.6027L363.64178,541.9522L365.14603,541.2582L365.37405,539.3716Q366.37845,539.289,366.95517,538.8168L366.95648,538.8168Q370.49835,549.5188,370.08264,551.1006Q372.3031,554.3177,372.29956,555.19885Q372.64005,556.8213,371.98096,559.203Q371.32617,561.7748,369.06976,566.44006Q368.78058,567.27795,369.04187,567.56775Q370.05612,568.02454,371.43176,568.02454Q374.45746,568.02454,379.23145,565.8148Q380.01624,565.36975,380.19434,564.9152Q379.78607,563.0973,380.55637,561.5788Q380.7541,561.26355,381.02118,561.26355Q381.3058,561.26355,381.66913,561.62146L383.98697,558.5728L382.92017,557.24554Q382.9786,556.1111,382.49738,555.4199L381.01563,553.67114L374.78748,528.2944Q373.29288,523.31683,372.45892,521.2598Q369.9341,515.99194,369.7583,514.4774L368.63538,512.6564L368.6956,511.91333Q369.95587,508.91714,369.7875,508.62476Q369.08295,502.951,369.46783,501.3639L371.51685,493.03644Q371.83044,491.59213,371.9544,488.97702L375.02686,488.03015Q373.663,481.62457,372.46082,478.29337L372.45944,478.29337Q372.71457,478.20282,373.00183,477.9889Q373.47067,477.63098,373.78296,477.1416Q374.26654,476.37814,373.87494,475.63968L373.8736,475.63968Q374.3924,475.3289,374.5462,474.8679Q373.67676,466.14526,372.50604,462.6409Q371.71393,459.1301,366.22772,452.67657Q364.05054,447.28693,362.69928,445.33603Q360.2953,441.488,358.08942,439.1083Q356.16074,437.0666,354.26904,436.24005Q352.21655,435.24115,347.4421,434.78595L344.8085,433.0428L344.69086,432.9642L344.13742,433.723L344.13742,433.723L342.2943,432.50418L342.28998,432.50134Q342.2466,432.54382,342.20343,432.5874L342.20343,432.5874Q341.48785,432.03,341.25745,431.76758Q340.9209,431.42752,340.79346,430.94705L340.79242,430.94705Q340.70026,428.85565,339.56238,426.56735Q337.87598,423.024,335.49457,421.84183Q334.4406,421.2801,332.79727,420.82996Q331.40472,420.44427,330.82712,420.44427 Z"/> </g> </g> </svg>