<?xml version="1.0" encoding="UTF-8"?>
<svg viewBox="0 0 285 560" xmlns="http://www.w3.org/2000/svg">
 <path d="m80.57 554.64c0-5.6008 3.4884-103.99 4.2902-121l0.35573-7.5482-4.573-3.4498c-6.5403-4.934-48.073-46.031-48.073-47.569 0-0.70695-0.61638-1.6452-1.3697-2.0851-1.5965-0.9321-6.6303-11.248-6.6303-13.587 0-0.87697-0.38735-1.8339-0.86077-2.1265s-1.6611-5.5063-2.6392-11.586-2.1658-11.293-2.6392-11.586-0.86076-2.5039-0.86076-4.914-0.38079-4.6173-0.84619-4.9049-1.1596-10.121-1.5426-21.851-1.4116-25.584-2.2856-30.786-1.7959-14.071-2.0484-19.708c-0.30642-6.8398-0.84479-10.25-1.6182-10.25-1.0308-3e-5 -5.0391-4.4147-7.0172-7.7286-0.40506-0.67859 0.16925-2.4692 1.2829-4 1.109-1.5243 4.3033-8.8464 7.0985-16.271 7.539-20.026 8.5011-21.353 25.009-34.5 19.945-15.884 23.3-21.103 30.851-48 9.4063-33.506 13.534-53.075 16.136-76.5 1.3057-11.756 3.1561-17.111 8.9011-25.76 7.387-11.121 18.704-19.017 32.615-22.757 3.281-0.88189 13.39-2.1058 22.465-2.7197l16.5-1.1163 6.8615 3.2806c7.746 3.7035 13.823 9.3273 21.1 19.526 9.2951 13.027 8.7471 9.8784 7.8404 45.046-0.43957 17.05-0.74262 33.025-0.67347 35.5 0.15203 5.4406 5.4225 28.551 8.096 35.5 4.1758 10.854 14.683 23.526 25.025 30.183 4.7959 3.0866 5.2486 3.7006 5.2336 7.0981-0.00957 2.1638-1.0394 5.3922-2.4625 7.7193-1.3453 2.2-2.8435 4.9-3.3294 6-2.3062 5.2217-4.7089 112.89-2.5798 115.61 0.59971 0.7649 5.0236 12.866 9.8309 26.891s10.786 30 13.285 35.5 5.3367 12.298 6.305 15.106 2.934 6.9652 4.3684 9.2374l2.608 4.1313-4.0268 0.64391c-5.1552 0.82435-5.8662 1.9928-1.6892 2.7764 5.3831 1.0099 7.2421 2.9894 8.7228 9.2885 0.75197 3.199 1.6491 6.0413 1.9936 6.3163s1.574 5.225 2.7322 11 2.6052 12.975 3.2156 16c1.663 8.2416 4.9734 43.293 5.0103 53.05 0.01779 4.7025 0.42092 8.9775 0.89586 9.5 1.7153 1.887 3.219 8.1096 4.0944 16.943 1.4001 14.128 1.0743 14.92-9.9579 24.228-16.232 13.695-3.9511 12.279-106.46 12.279h-88.54v-6.0442zm8.823-176.14c-1.6928-12.378-8.4604-33.869-15.426-48.986-2.9578-6.4192-6.566-15.869-8.0183-21s-3.2567-10.039-4.0098-10.908-1.3692-2.1058-1.3692-2.75-0.45-1.1713-1-1.1713-1.004 2.5875-1.0088 5.75-0.04113 15.875-0.0806 28.25c-0.05648 17.707 0.24178 23.234 1.4002 25.944 1.5465 3.6186 27.403 31.046 29.274 31.052 0.75369 0.00258 0.82645-1.8831 0.23855-6.182z"/>
</svg>
