<?xml version='1.0' encoding='utf-8'?>
<svg xmlns="http://www.w3.org/2000/svg" width="210mm" height="297mm" style="shape-rendering:geometricPrecision; text-rendering:geometricPrecision; image-rendering:optimizeQuality; fill-rule:evenodd; clip-rule:evenodd" viewBox="0 0 210 297"> <defs> <style type="text/css">  .fil0 {fill:black}  </style> </defs> <g id="Warstwa_x0020_1"> <metadata id="CorelCorpID_0Corel-Layer"/> <g id="_121533352"> <path id="_121532536" class="fil0" d="M93.5854 185.152c-1.4346,-1.3511 -2.8074,-3.38 -2.5202,-4.7929 11.1972,8.9897 19.1601,10.5065 25.5432,8.2309 8.5673,-3.0549 13.0588,-15.4687 21.1665,-20.7687 -0.9016,-1.0652 -1.8645,-3.1776 -1.5974,-4.8592 3.2256,4.5658 6.8101,7.5184 12.1685,7.3176 -0.2922,-1.9492 -0.2141,-3.7135 2.4584,-4.1793 -0.4303,-2.6287 -2.3115,-4.7657 -4.484,-6.7867 -3.074,-2.8603 -6.722,-6.0458 -13.6677,-4.2928 -7.005,1.768 -15.6954,6.0538 -21.2662,2.5168 -3.4831,-2.2117 -6.0617,-6.661 -7.8056,-11.2727 -1.4445,-3.8216 -2.0673,-7.6983 -4.4151,-11.0282 -7.9474,-11.2711 -19.5608,-14.9558 -29.7346,-25.9255 1.9676,3.1191 5.75,6.4682 8.7334,9.018 7.3661,6.2959 13.8714,10.8717 17.6722,16.0022 6.5846,8.8891 1.8001,14.3652 12.6831,24.3937 -9.099,-1.9555 -8.3644,-12.297 -13.8072,-21.5718 -2.9062,-4.9531 -7.4207,-8.6173 -10.6395,-11.16 -5.113,-4.0395 -10.7323,-7.5209 -14.6136,-11.7198 -8.5363,-9.2351 -14.8769,-18.797 -19.6956,-28.563 -0.5714,1.9888 -1.023,4.0495 2.2126,8.3586 -2.7251,1.2096 -1.2175,4.9255 1.475,9.3419 -4.1718,-0.1845 -2.3065,4.5086 3.6876,12.5379 -8.8778,-0.8661 4.2799,9.0602 11.8004,16.2254 -13.0546,-0.5989 -0.2308,7.2801 9.0961,14.0129 -6.7838,2.8253 -4.6986,5.6168 10.5711,8.3586 -1.7689,3.9034 0.2049,6.5955 8.8503,7.1294 -1.2894,4.0478 3.0502,5.8083 7.8668,7.3752 -4.5132,0.8652 -8.9283,-0.6098 -13.2753,-3.6876 -6.8343,8.3302 -12.4064,11.4627 -23.0322,12.5908 -4.8296,0.513 -10.7928,0.2046 -13.6602,1.1095 -3.2502,1.0255 -2.5891,3.6688 1.6186,3.7944 1.922,0.0572 4.9197,-0.0238 9.2605,-0.2859 -1.1503,0.4253 -4.9022,1.564 -7.1811,3.2802 -3.3316,2.5085 -3.5177,7.9625 1.4037,4.3513 2.3582,-1.7305 4.976,-3.6171 7.8677,-3.7022 1.0305,0.2354 -11.9318,9.4183 -6.1385,12.6739 2.185,1.228 4.2728,-3.3282 7.5246,-6.0571 2.6943,-2.2606 4.4798,-3.115 6.3572,-2.925 -3.2527,3.9384 -6.239,7.06 -6.929,9.6094 -1.8215,6.7329 4.4736,8.2121 5.3868,-0.0233 0.2667,-2.4054 1.4254,-3.4055 3.2631,-4.4235 -0.8352,4.4656 -1.124,8.0764 -0.6732,10.5165 1.1528,6.2349 4.1342,6.1259 4.676,2.21 0.2721,-1.9696 -0.8023,-5.5379 0.6682,-8.793 0.8656,3.0156 1.6336,5.3529 2.3086,7.0492 2.5393,6.3847 5.6693,3.8166 1.9074,-6.0413 -0.9717,-2.546 -0.1703,-6.6819 1.5648,-9.912 1.1749,-2.1867 3.6292,-3.6071 5.3438,-5.2328zm-8.4692 25.3307c4.413,5.7608 7.7292,3.7185 6.4186,-1.9788 -0.7046,-3.0628 -2.1738,-7.5797 -1.789,-11.9097 0.3995,-4.4952 2.7143,-7.3669 5.5555,-10.2856 8.0914,6.0249 15.4057,7.4916 21.9745,5.5466 8.4462,-2.501 11.5411,-12.4289 21.7107,-21.99 3.2252,2.3361 6.6294,3.7018 10.6759,1.5953 0.4659,1.0276 1.9401,1.1891 3.5587,1.2271 1.9053,-4.0741 -0.2934,-5.9991 -0.9241,-8.2714 -0.715,-2.5756 -1.7848,-4.5703 -3.0081,-6.1209 -5.0675,-6.424 -12.4586,-8.2918 -23.8006,-4.2599 -1.2104,-5.9406 4.2164,-6.7645 5.3763,-10.8683 1.5026,-5.315 -1.4758,-12.4381 -1.2454,-18.7227 0.1907,-5.2073 0.5062,-10.7865 3.7226,-14.8305 3.63,-3.2456 4.5107,-5.1781 4.1722,-6.3443 -1.0698,-3.6838 -8.5531,-1.2192 -10.3541,-0.0747 -2.0352,1.2931 -4.1129,3.3032 -4.494,7.1552 -4.34,-1.7108 -7.0818,-0.4854 -7.4854,5.0312 -4.057,-2.4692 -5.2787,1.6913 -4.9084,9.5715 -5.3705,-2.5101 -4.8058,2.8516 -4.0495,8.4671 -5.1405,-3.4288 -3.0828,2.872 -0.98,10.4923 -2.1083,-5.0504 -3.5729,-10.6622 -7.7092,-14.9116 -6.7466,-6.9307 -16.4032,-12.0724 -24.8023,-19.6088 -5.1038,-4.5791 -9.9079,-10.1642 -13.9653,-16.0293 -1.8578,-2.6867 -3.3758,-5.4782 -5.6402,-7.861 -5.4506,-5.737 -8.6311,-3.6021 -5.3742,5.0921 -3.178,1.6407 -2.6245,4.9761 0.4286,9.0806 -3.0811,1.7059 -1.0313,6.4954 2.4543,12.1485 -2.5306,1.6545 -1.9359,5.6126 9.8169,17.7932 -4.2882,3.8896 3.6112,10.1892 11.903,16.566 -6.4373,5.0487 0.9779,8.2985 12.2712,11.044 -2.0949,2.1275 -0.2542,4.0913 5.522,5.8902 -6.7938,8.7693 -16.1358,12.7349 -27.6256,12.648 -2.786,-0.02 -4.8788,-0.164 -7.5438,1.0151 -5.3993,2.3908 -7.1661,7.4616 0.5647,8.6704 -2.3812,2.9254 -3.2777,8.6933 3.0678,9.4488 -1.1695,7.1427 2.4918,7.7596 6.9946,7.2399 1.2342,8.0811 6.2286,9.3921 9.0806,5.6448 5.5525,7.3685 10.5357,9.7464 10.4305,2.6996zm48.1029 -105.409c-2.089,2.6366 -3.5165,4.9113 -4.7056,7.7279 -3.5933,8.5088 -0.1549,19.1868 -0.4307,28.2925 -0.1549,5.1079 -7.1958,4.5783 -5.5396,14.0458 -6.5371,2.1446 -11.8755,0.5518 -15.4616,-6.5037 1.5693,-1.6783 1.7555,-4.8467 -1.1044,-11.2894 1.3339,1.2263 2.2242,1.576 2.7914,1.2872 1.4484,-0.7375 -0.2587,-5.8609 0.0309,-10.736 1.705,1.748 2.8817,1.9675 3.6901,1.1223 1.3027,-1.3627 -0.073,-6.4477 1.7092,-10.4484 0.5969,-0.707 2.2977,1.7576 3.1939,0.7572 1.2158,-1.3578 0.1515,-4.2511 1.6983,-5.5325 1.6107,-1.3344 3.6734,1.5781 4.9406,0.7388 3.3662,-2.2301 -0.1544,-9.1212 9.1875,-9.4617zm11.4289 54.9751c0.8573,0 1.5526,0.6966 1.5526,1.5556 0,0.859 -0.6953,1.5556 -1.5526,1.5556 -0.8573,0 -1.5527,-0.6966 -1.5527,-1.5556 0,-0.859 0.6954,-1.5556 1.5527,-1.5556zm6.502 8.4713l-0.0305 -0.154c-0.0884,-0.4504 -0.735,0.7893 -0.6148,1.2321 0.124,0.4554 0.9262,1.2058 1.1683,0.801 0.3335,-0.5581 -0.3974,-1.2418 -0.523,-1.8791z"/> <path id="_121530064" class="fil0" d="M147.697 190.985c-0.0384,-1.1549 -0.0447,-2.2698 -0.0205,-3.3445 -3.8003,3.1199 -6.8451,2.5494 -9.132,-1.9329 3.5006,-1.5606 6.8923,-1.2772 9.1596,1.0539 0.0722,-1.8274 0.2395,-3.5303 0.505,-5.1105 -3.6417,1.6261 -7.0413,1.3018 -10.0953,-1.796 3.4864,-2.314 6.9106,-2.3324 10.2493,0.9508 0.389,-1.983 0.9416,-3.7548 1.6645,-5.3104 -3.7435,1.811 -7.058,1.475 -9.7614,-1.9246 3.5115,-1.6737 6.8402,-0.9846 10.044,1.3444 2.3432,-4.5891 6.2808,-7.1385 11.969,-7.4432 3.0949,-0.0205 2.3778,2.5464 0.4307,2.5256 -4.125,0.3998 -7.2834,1.9679 -9.5189,4.6684 4.1363,1.5677 5.0792,5.3643 3.8003,9.8094 -3.6943,-2.435 -5.0712,-5.3037 -4.7632,-8.49 -1.0635,1.6583 -1.8561,3.6517 -2.3841,5.9732 5.383,0.9137 6.8919,5.7307 5.487,11.2035 -3.3613,-2.367 -5.4169,-5.8071 -5.9127,-8.8749 -0.2859,2.0114 -0.4053,4.2281 -0.3636,6.6502 2.9776,3.1421 2.4981,7.1073 -0.7951,10.1721 -3.7356,-3.1137 -4.5416,-7.7717 -0.5626,-10.1245z"/> </g> </g> </svg>