<?xml version="1.0" encoding="UTF-8"?>
<svg enable-background="new 0 0 2345.2278 1660.9524" version="1.1" viewBox="0 0 2345.2278 1660.9524" xmlns="http://www.w3.org/2000/svg">
 <path d="m2300 1100c-9.7598-14.162-19.804-28.14-28.723-42.829-20.574-35.021-39.738-70.855-60.839-105.56-2.9634-5.4141-7.5371-9.8025-13.023-12.567-19.933-10.315-42.516-13.735-62.976-22.697-5.4998-2.8068-8.1499-9.1044-9.6458-14.746-1.325-3.6475 3.334-4.4595 5.3003-6.3688 8.0928-8.0072 13.293-18.323 18.764-28.154 2.3081-4.6591 9.7739-1.7952 11.484-7.0527 1.4817-5.4142 0.8691-11.128 2.0229-16.599 0.9548-3.8469 3.0918-7.5229 2.7927-11.598-0.5271-2.8925-1.3535-5.7276-1.7952-8.6057 5.3857-1.838 11.284-0.4417 16.656-2.2227 3.7615-1.8094 1.4392-6.269 0.3848-9.0901-2.7781-5.8843-0.0713-12.41-0.812-18.565-0.6838-3.0491-4.8157-3.1203-6.0269-5.7562-4.9585-10.714-8.5627-22.127-14.804-32.214-5.1011-8.05-15.687-8.5487-22.426-14.561-6.3975-5.5139-12.025-12.567-20.431-15.074-10.9-3.22-22.469-4.0749-33.768-3.334-13.008 0.983-23.737 9.5887-32.214 18.836-6.041 6.7963-12.125 13.721-16.613 21.657-3.2201 5.9984 1.0542 12.809-1.1825 19.007-2.9495 9.0759-8.1072 17.525-9.3896 27.1 0.171 7.0669 6.7678 11.412 11.042 16.257-1.8666 1.5529-4.3456 2.7498-5.2574 5.1292 0.228 6.782 1.8379 13.45 3.7472 19.947 1.681 6.269 7.3661 10.273 12.837 13.151 2.3654 1.3108 5.6992 1.5389 7.1099 4.2031-0.114 2.3224-0.6982 4.6021-0.9404 6.9388-0.0713 2.9778 2.4932 4.7872 4.6162 6.4115 4.7871 3.3765 4.6733 9.9308 5.7847 15.117 0.7126 5.1863 2.4792 11.569-1.8093 15.716-8.3208 8.4917-17.71 16.015-27.883 22.155-7.2665 4.6591-15.915 0.1853-23.751 1.8665-8.3066 1.8095-17.297 4.3883-22.839 11.313-4.3597 5.3287-3.8185 12.681-6.6254 18.708-4.3597 9.304-9.9165 17.967-14.96 26.9-5.3857 9.6458-12.239 18.437-16.855 28.51-11.356 24.72-18.294 51.335-21.586 78.306-3.6331 30.932-6.5112 62.049-12.68 92.611-1.1685 7.8223-9.5175 10.344-14.006 15.801-5.9131 6.2263-10.558 13.735-17.154 19.263-6.6254 0.2563-12.168-4.4169-17.739-7.4089-9.5602-6.7963-20.36-13.008-26.444-23.409-4.1888-6.8817-1.895-15.088-2.3225-22.626-0.2706-6.9102-4.2031-12.795-7.5228-18.579-9.0475-14.989-18.779-29.579-29.094-43.727-2.4934-3.1204-4.6592-6.9387-8.5487-8.449-8.4207-2.8638-17.497-1.8094-26.159-2.7213-3.2056-4.7161-9.3892-6.6823-11.64-12.054-0.5841-7.2806-0.0143-15.886 5.514-21.315 4.6876-5.3286 9.603-10.458 14.248-15.829 1.6812-2.1656 4.9014-2.4648 6.2833-4.944 2.2937-3.5048 4.4169-7.1382 6.0837-10.971 2.0803-4.2031 0.2565-8.8196-0.1709-13.151 12.139 5.0438 24.763 11.826 30.989 24.036 1.4392 1.667 2.066 6.155 5.0864 4.9725 3.662-1.9093 1.4108-6.3405 0.8125-9.3324-1.8096-8.3635-8.8765-13.664-14.576-19.377-3.8755-3.7186-7.8933-7.2663-11.598-11.128 13.137 8.0786 24.036 20.004 39.054 24.791 1.1969-0.5842 2.4222-1.1541 3.6617-1.7097-3.7758-0.641-7.2665-1.9946-10.686-3.576 0.8976-2.7356 3.6332-0.5699 5.2004 0.2565 2.3083 1.1541 4.3313 3.4194 7.2238 2.8639-1.14 0.983-2.2512 1.9945-3.3197 3.0345 2.2653-0.5557 7.708 2.9351 8.3206-1.0116-5.4854-4.2031-12.467-6.2834-17.254-11.427-14.676-15.701-23.922-35.278-34.708-53.615-8.2496-14.048-19.192-26.316-30.918-37.529-8.5488-8.3207-20.289-13.892-32.4-13.065-9.4607 0.5984-19.064-1.553-28.41 0.513-4.9156 1.097-7.7654 5.8131-8.8053 10.415-2.4791 12.096-12.552 20.289-17.91 31.018-5.5425 9.0617-6.9102 20.032-5.2289 30.405 0.6696 8.6769 4.2316 16.998 3.5334 25.789-0.0287 8.0072-2.009 16.186-0.057 24.093 2.3082 4.0748 8.1926 2.7072 10.971 6.2406 4.7302 5.3715 8.9478 11.284 12.068 17.738 1.496 3.3768 3.1771 7.8506 0.2423 10.999-4.9442 5.4142-12.082 8.2637-19.007 10.216-6.041 2.0089-8.3494-6.9387-14.276-6.4401-7.4089 0.2708-14.462 2.8638-21.571 4.7161-13.721 5.4139-26.644 12.923-40.948 16.841-6.3119 1.5674-13.806 3.2629-19.52-0.812-7.7222-5.4996-12.182-14.291-15.972-22.711-2.4078-5.8274-4.7019-11.783-5.6992-18.024-0.4559-6.1693 3.8755-11.27 5.0011-17.126 0.6553-4.6021-2.8069-8.1925-5.1007-11.74-3.5762-4.887-1.8666-11.484-4.6306-16.684-8.2068-18.009-27.855-26.587-38.298-42.843 3.106-6.839 13.664-5.6564 17.667-11.555-2.3365-4.0037-8.2209-1.838-11.299-4.9583 6.3545-7.4234 15.587-14.191 16.114-24.791 0.342-11.042-3.5762-21.586-6.5541-32.058-4.5165-15.673-9.9878-31.217-18.536-45.194-5.2289-9.1329-12.837-16.528-20.275-23.837-10.643-10.33-21.415-20.659-30.22-32.656-6.7819-8.905-11.384-19.163-16.285-29.137-26.8-56.479-50.281-114.47-77.209-170.87-4.0463-7.3805-6.8534-16.57-15.046-20.432-8.7626-5.2004-19.577-5.2004-28.353-10.159-4.0751-5.3999-3.0632-13.307-1.0829-19.406 4.8728 0.6981 9.2614 3.1345 12.88 6.383 2.5363 2.2654 5.5424-1.0828 7.1382-2.9778 4.4309-4.83 1.2681-11.569 2.522-17.254 4.9011-0.9973 5.0723 5.3999 8.8478 6.9102 3.5763-0.6697 4.0892-4.9012 5.2007-7.7224 2.707-8.0928 1.4246-16.642 1.7524-24.948 7.6937-0.2992 12.638 5.8274 18.194 9.9593 1.8807-3.1773-0.3278-6.668-1.0543-9.8453-7.1097-21.6-15.103-43.143-26.957-62.648-16.043-25.076-36.973-46.434-56.066-69.131-14.49-16.912-27.598-35.064-43.385-50.822-8.3634-8.2495-20.859-6.0411-31.417-8.0358-12.738-2.1514-25.974-1.1397-38.142 3.2486-9.9878 3.8042-18.237 10.928-25.618 18.48-7.0385 7.2664-13.55 15.174-18.594 23.994-5.87 10.33-8.6769 22.084-10.273 33.782-1.8381 13.735-4.4596 27.684-2.2513 41.561 1.1542 7.8649 5.0865 14.946 6.6681 22.725 3.9608 17.34 6.6823 34.95 9.3608 52.532 1.61 9.717-7.1667 16.727-15.074 20.189-18.978 7.4516-38.512 13.436-57.376 21.201-4.5166 1.838-9.0189 3.9324-12.666 7.238-5.984 5.0009-10.045 11.797-15.558 17.226-3.8329 3.8185-9.3611 4.7446-13.949 7.2523-4.2887 2.3081-6.8533 6.6252-9.204 10.7-4.9298 8.7625-9.019 17.967-12.894 27.242-10.629 24.108-11.398 51.435-23.267 75.101-7.9931 16.414-22.825 28.638-29.108 45.992-6.1837 15.858-6.0412 33.212-9.9736 49.554-4.3883-3.2629-8.8907-7.8934-8.6341-13.749-0.0428-19.021 1.7664-38.099-0.3848-57.077-2.1512-18.237-6.2121-36.175-10.201-54.071-16.841-75.77-35.235-151.18-53.586-226.61-3.7614-15.687-8.1354-31.231-11.412-47.032-3.2912-14.462-6.1408-29.55-14.462-42.117-8.7054-14.077-22.198-24.592-36.617-32.328-23.01-9.9734-47.104-17.126-70.556-25.96-10.13-3.9182-20.546-7.4089-29.864-13.065-4.0607-2.3936-4.8158-7.5799-5.0722-11.854-0.2279-9.4321 2.1658-18.707 4.9726-27.627 4.6021-10.102 12.51-18.351 16.912-28.553 3.5049-8.2352-0.9261-17.582 3.1345-25.618 1.4105-3.2201 4.9012-5.3715 5.2147-9.0901 1.4105-9.7741 1.6812-19.705 3.4907-29.422 1.3534-7.9646 10.956-12.139 10.244-20.773-1.7097-10.173-7.4944-19.106-10.914-28.724-3.1773-9.1187 2.8067-18.351 0.6126-27.513-2.4649-7.7081-11.327-8.9334-17.254-12.88-10.586-7.4517-19.79-17.169-31.816-22.369-6.2405-2.6359-12.495 1.4675-18.822 0.9688-8.5772-0.3562-17.24-0.3989-25.689-2.0516-5.6422-0.7409-7.8221-9.5603-14.134-7.4089-8.6199 4.3457-14.447 12.595-22.64 17.639-6.3546 3.8469-13.265 7.9076-16.371 15.046-3.6046 6.8248-4.3171 15.516-10.415 20.802-5.4711 3.5335-13.892 4.83-15.188 12.481-1.8522 10.871 2.4079 21.785 7.4802 31.246 2.9066 5.2432 2.3936 11.327 1.7239 17.04-0.8692 6.6822 3.2626 12.339 5.2147 18.38 0.114 10.942-0.8834 21.928 0.4987 32.827 1.1398 8.1498 6.2691 14.918 8.4775 22.74 4.2744 13.322 10.244 27.413 6.0981 41.561-1.8379 7.4802-8.748 11.868-15.103 15.231-12.666 6.497-25.66 12.681-39.566 16.015-15.658 3.9894-31.545 7.0812-47.118 11.398-17.482 4.7589-32.913 15.872-43.755 30.291-8.7054 11.427-16.698 23.366-24.35 35.52-5.0295 6.5397-0.3989 14.974-2.4791 22.341-5.9413 30.177-12.196 60.326-19.705 90.146-6.5113 25.803-19.235 49.483-26.017 75.186-3.5051 12.88-7.9077 25.66-14.889 37.13-7.5799 12.609-15.573 25.148-20.488 39.11-8.1355 22.654-14.219 45.964-20.474 69.174-18.223 67.164-30.804 135.67-46.277 203.47-1.2538 5.8986-4.5166 11.113-8.335 15.701-4.3029 5.1862-8.1641 10.843-13.379 15.188-1.439 0.9974-3.5905 2.9065-5.1007 0.9688-3.3055-3.7187-3.9182-9.0758-7.124-12.88-5.5566-6.4543-13.963-11.527-22.782-9.9166-6.8106 0.1852-11.854 5.5851-18.38 6.6395-5.9556-2.2939-9.7313-10.458-8.0073-16.513l0.8976-0.6126c11.427 0.8691 22.626 4.4311 34.152 3.9894 4.6733-0.4417 6.4827-5.6421 7.5656-9.4891 1.0259-4.1888 2.6502-9.4321-1.1968-12.695 2.3509-2.2227 5.3714-4.0748 6.5825-7.2094 0.8264-3.8612-1.325-7.5657-1.1256-11.427 1.2823-5.2148 8.2353-7.0243 8.5344-12.681-0.0428-5.4712-6.9102-7.5228-7.4801-12.752-0.114-4.2315 2.9066-7.5798 4.2601-11.384 3.163-8.8195 7.0812-17.639 7.3234-27.156 0.2992-10.344-0.8121-21.044-5.4142-30.433-3.8326-7.7082-11.056-12.795-17.739-17.838-5.2859-3.7756-8.1212-10.287-14.191-13.065-9.66-5.1008-20.802-4.6306-31.374-4.5736-6.9957 0.0712-11.156-7.9647-18.28-6.9673-10.629 2.465-19.363 9.8453-30.006 12.324-6.3974 1.8522-14.006 3.5049-19.862-0.7266-5.1577-3.9752-10.8-7.238-15.943-11.227-3.163-2.351-7.0527-4.3599-11.099-3.6475-6.5968 0.8976-11.37 6.1265-15.088 11.227-4.9867 6.6537-8.1355 15.088-7.0242 23.495 1.0686 7.9788 7.8078 13.65 9.2611 21.514 2.5219 8.8052 0.6269 18.009 1.4106 27 0.7693 10.558 0.5414 21.457 4.0606 31.573 6.4971 15.174 19.505 25.945 29.906 38.341 4.83 5.457 7.4801 12.652 8.1925 19.847 0.228 2.9066-2.9635 3.9039-5.2004 4.4738-6.5825 2.3795-13.578-1.6099-20.161 0.8265-8.4918 3.0205-14.547 10.073-21.771 15.16-6.6395 4.4312-12.638 10.387-14.846 18.294-11.37 35.235-12.31 72.707-11.897 109.4 0.3848 11.74 0.7124 23.694 4.0464 35.05 4.2459 12.552 15.687 20.26 25.119 28.724 4.1604 3.8043 9.0758 8.5916 8.0928 14.804-1.61 11.398-10.643 19.534-15.445 29.493 0.1282 21.415-1.3536 42.872-1.4391 64.329 0.2137 17.154-1.2253 34.822 4.1177 51.406 3.4907 11.712 9.3894 22.497 14.86 33.368 5.5709 11.826 16.513 20.902 18.836 34.252 4.9155 26.102 7.8078 52.575 9.717 79.047 1.1256 7.3948-4.3314 13.122-6.4971 19.705-4.4168 11.911-9.3466 24.208-8.5344 37.159 0.9546 14.476 4.4454 28.638 6.3545 43 1.3678 6.9956-5.4712 13.037-2.7783 20.061 3.3767 11.598 8.3492 22.668 12.039 34.18 2.7356 7.9789 1.2396 16.542 0.5415 24.749-0.057 5.2716-5.7276 7.6224-7.5229 12.168-0.0121 0.0221-0.0243 0.0443-0.0364 0.0667-1.7882 3.2878 0.6629 7.2924 4.4057 7.2924h117.09c4.8583 0 6.9168-6.1406 3.0727-9.1116-0.0431-0.0332-0.0861-0.0665-0.1291-0.0999-2.4364-2.2227-6.2121-4.4025-5.7276-8.2067 0.7409-6.084 2.5504-14.262-3.3624-18.38-5.5139-4.9581-12.78-9.5033-14.462-17.197 1.1684-6.9244 5.7419-12.652 9.1472-18.622 8.4775-13.735 18.48-26.501 26.501-40.506 2.8496-6.212-6.6253-10.202-3.9466-16.385 2.4791-5.6138 6.7962-10.173 9.3751-15.73 6.5539-14.12 12.609-28.467 18.864-42.715 2.0089-4.4026 3.4338-9.2181 6.9388-12.709 0.2137-19.505-0.285-39.011-1.0117-58.487-0.3989-6.4259-0.2137-13.35-3.8469-18.964-2.5789-4.8015-7.6369-9.3607-5.9984-15.316 2.6359-4.944 8.2068-7.024 12.481-10.216 3.2343-2.2228 6.7962-5.5853 5.9699-9.9166-1.553-6.9957-7.9077-11.242-11.498-17.069-1.4247-2.7072 0.2565-5.7705 1.895-7.9502 6.839-8.7911 13.279-18.209 22.312-24.92 5.5852-4.2316 13.037-2.7924 19.334-4.9155 3.7757-1.2111 5.6992-5.5282 4.6733-9.2468-2.2369-10.059-7.9361-19.178-8.7767-29.593-3.4622-33.297-4.3883-67.136-12.98-99.664-6.668-22.042-15.359-43.385-23.381-64.942 4.2315 0.4131 2.7498-4.0605 2.6643-6.668-1.154-11.769-1.9235-23.822 0.7694-35.435 1.6812-7.0811 6.1408-13.051 10.857-18.408 10.258-11.598 22.911-20.702 33.91-31.531 5.9129-5.5852 12.88-10.03 18.28-16.157 3.3483-3.6047 3.3199-8.8478 2.636-13.407 3.7329 0.8835 7.9787 1.0117 11.427-0.9403 3.1631-2.4791 2.5077-7.124 3.22-10.657 1.2966-22.298 1.7098-45.707-7.6511-66.495-4.1461-9.0331-14.177-15.445-13.992-26.216 0.7409-11.769 7.6369-21.87 12.567-32.243 30.647-63.902 61.508-127.75 93.851-190.82 2.2939-6.5112 10.501-6.2548 14.39-11.227 3.277-3.7899 5.8986-8.1213 9.66-11.456 2.0374 1.2396 2.5503 3.619 3.2485 5.7419 1.667 5.7704 2.7214 11.726 3.334 17.696 0.7837 2.8783-2.4079 4.1321-4.0464 5.7848-5.5424 5.001-12.139 10.515-12.424 18.636 0.1853 6.44 1.0259 12.966 3.0633 19.106 2.9778 10.173 1.3536 20.959-0.228 31.231-0.3419 3.5476-3.1203 6.1124-4.0179 9.4606-0.0712 7.1951 1.8665 14.433 0.4133 21.614-1.6385 6.8675-8.8907 9.9166-12.068 15.858-5.115 9.0616-8.8052 18.992-10.387 29.294-1.0543 9.0046-0.1425 18.08 0.1282 27.1 0.9546 15.345-1.0828 30.804-5.2574 45.565-1.7668 7.2523-9.1328 12.196-9.0189 20.033 0.3705 9.3465 11.968 13.222 12.467 22.569 0.6838 13.379 0.1425 26.786-0.1996 40.179-0.9403 21.4-1.5529 42.843-4.0321 64.144-1.1256 10.144-9.3751 17.183-13.393 26.116-1.781 3.491-0.6555 8.1783 2.9635 10.002 8.0216 4.2174 17.425 3.3055 26.017 5.4427 3.3767 2.5077 1.4247 7.4944 2.6216 11.071 7.6226 33.354 12.481 67.25 17.382 101.09 2.5362 22.298 6.7678 44.61 5.3572 67.15-0.8976 15.331-6.782 29.992-6.5255 45.451-0.0713 19.135 5.6849 37.586 11.412 55.638 8.6485 30.234 22.17 58.73 32.485 88.38 7.1667 19.691 11.968 40.136 16.855 60.497 3.1915 14.718 6.668 29.579 6.668 44.738-0.2565 15.046-9.2896 27.94-19.064 38.64-8.4205 10.458-20.417 16.869-31.345 24.278-5.813 3.6759-5.9698 11.541-10.942 15.943-7.8506 7.3092-16.684 13.863-22.597 22.982-2.2357 3.4954-4.8441 9.1672-7.0026 14.304-2.294 5.4592 1.7278 11.484 7.6494 11.484h78.555c3.0024-0.7318 6.0734-1.4658 8.2513-3.8041 3.7899-4.3169 6.2549-9.8738 11.256-13.037 13.108-8.8624 29.066-11.555 43.356-17.881 5.9698-2.5363 14.262-5.2858 14.291-13.136-0.0997-8.848-1.838-17.625-3.5905-26.259-2.6929-11.74-5.1434-23.566-8.7339-35.064-5.7988-6.3546-7.9931-14.918-10.914-22.811-6.5684-18.209-4.5596-37.885-4.3029-56.849 0.7408-33.967 4.6875-67.72 9.6743-101.3 1.3107-12.268 2.7498-25.09-1.2396-37.03-8.7339-30.006-17.553-60.154-21.671-91.215-3.0206-21.714-1.9377-43.741 0.114-65.483 2.1656-23.751 6.1408-47.274 9.8595-70.812 2.2653-14.191 2.0231-28.781 5.4141-42.786 3.2058-2.9351 8.8765 2.0517 11.669-2.1229 1.61-3.3625-0.0142-7.3235-0.1567-10.885 4.1319 8.3064 6.9815 17.568 13.379 24.535 4.1176 4.2744 10.558 3.7756 15.986 3.4053 3.9039-0.3562 8.8907-0.0856 10.814 3.9894 3.7044 7.7367 3.277 16.613 4.0891 24.977 2.0944 21.799 0.6981 43.727 0.8264 65.597 0.1138 19.42-0.4987 39.025 2.5931 58.274 3.0633 19.121 15.815 35.05 18.594 54.242 2.2227 13.45-1.4106 26.886-4.4739 39.894-5.7419 23.281-13.607 46.106-17.055 69.9-2.707 16.969 1.6243 34.095 7.9504 49.782 5.5282 13.664 9.9165 27.969 10.501 42.801 1.5103 36.631-2.0517 73.206-4.2743 109.74-1.2965 17.112-3.6475 34.138-4.1746 51.321-8.569 16.89-1.8243 24.188 9.1287 24.851h85.965c4.9853 0 7.53-6.0271 4.0216-9.5688-2.2102-2.2313-4.6764-4.2678-6.9315-6.3635-5.0151-4.317-11.926-7.3091-14.319-13.934-1.496-4.6449-2.6074-10.159-7.2379-12.738-4.4311-2.8353-11.626-3.163-13.151-9.1329-0.8834-7.5085 0.9404-14.96 2.123-22.326 4.3598-27.042 12.866-53.159 19.548-79.66 8.8906-32.955 20.232-65.384 25.304-99.251 5.5566-34.779 7.8079-70.498 1.211-105.31-3.7472-18.878-8.0215-37.785-8.4489-57.106-0.9974-18.594 0.8976-37.144 2.9208-55.595 3.6048-31.944 7.3377-63.916 13.293-95.532 1.895-9.0759 3.5192-18.337 7.1667-26.928 1.3679-3.8328 5.3-5.7847 9.0331-6.5969 9.9164-2.0231 20.061 0.5842 30.02-0.7836 5.1577-0.7551 7.7509-6.326 7.537-11.085 0.0285-7.1954-2.1371-14.234-1.61-21.458 0.3134-18.052 0.7125-36.104 0.5842-54.156-0.1283-10.544-0.057-21.215-2.6216-31.502-1.3964-7.5085-4.3457-14.789-4.7161-22.412 2.0516-3.277 7.124-2.9777 8.8621-6.6537 1.3536-3.277 1.3108-6.9672 1.667-10.444 1.1683-36.161 2.3082-72.322 2.2084-108.51-0.1852-26.259 0.0286-52.76-5.2289-78.606-4.1176-22.298-11.64-43.954-13.607-66.623-1.2824-23.11 1.4532-46.263 5.3145-69.017 0.9545-3.6333 0.926-7.6654 2.8642-10.943 3.3625 5.2432 6.4686 10.914 7.3662 17.169 1.2253 7.5515 2.1942 15.245 5.115 22.383 4.3598 10.928 10.244 21.144 15.146 31.83 7.3945 14.048 11.74 29.379 17.411 44.154 16.257 44.468 32.77 88.864 47.631 133.83 6.7678 19.192 9.19 39.623 9.8596 59.855-0.3704 4.0748 0.5699 9.4036-3.0775 12.267-4.2888 2.5789-9.9877 2.4649-13.536 6.3261-5.1719 5.1719-3.1489 13.778-8.2354 18.992-4.4026 4.6876-11.584 5.1435-15.972 9.717-0.9974 4.3028 4.0322 6.5113 6.8959 8.6199 2.8639 2.3224 6.7393 3.0349 9.5177 5.3715-3.2058 8.1641-7.3378 15.958-10.202 24.264-2.3082 5.8843-0.8264 12.396 1.3821 18.081 1.0544 2.3508 2.2654 5.172 5.0295 5.9556 4.1033-1.1255 5.457-5.8701 8.6627-8.278 1.9805-0.3847 2.6644 2.1942 3.847 3.3198 4.3741 6.1123 7.3378 13.208 12.225 18.95 2.7499 2.009 5.514-1.3821 7.0242-3.4196 3.8043-4.5023 2.009-10.657 2.408-15.986 0.2136-6.8533 0.4274-14.917 5.8701-19.89 5.9413-5.0723 14.276-4.5735 21.358-6.9244 11.854-3.6474 20.289-13.265 30.39-19.918 12.766-8.3491 27.314-13.265 40.906-20.018 8.6484-4.26 18.337-6.7108 26.088-12.652 6.1407-4.9725 4.2172-13.849 8.292-19.99 2.8069-4.5023 5.9271-8.8336 9.4606-12.795 1.0259 14.832-2.08 29.479-4.7871 43.969-2.2371 10.714-4.4596 21.5-8.3922 31.744-5.1719 13.122-12.367 25.49-15.787 39.267-9.0047 36.503-4.8444 75.286 7.1953 110.59 8.6912 25.276 17.183 50.637 27.114 75.471 10.928 28.638 22.654 57.006 32.699 85.972 1.6527 3.6475 1.4818 7.936-0.8407 11.27-5.3287 7.8507-7.0099 18.095-5.1292 27.327 1.5387 6.9246 9.2611 8.9192 13.108 14.048-3.5334 1.5244-7.9219 1.6243-10.6 4.7017-1.553 2.9495-1.1825 6.3549-0.9261 9.5604 2.3938 16.285-2.7499 32.314-3.5477 48.542-1.4246 13.806-0.7266 27.726 1.5104 41.404 5.0865 36.204 12.31 72.08 17.268 108.3 1.724 7.7366-4.4169 13.664-6.6254 20.502-1.7097 7.3093-1.7383 15.416 1.7667 22.241 2.3511 4.2886 7.1666 6.2972 10.145 10.073 1.4958 2.3081 0.0854 4.83-1.0117 6.9813-6.212 11.113-14.533 20.902-20.987 31.873-2.8922 4.6449-0.5842 9.9879 0.3276 14.846 0.9261 3.7471-1.1113 7.5228-0.1853 11.27-0.4071-0.2097-0.7172 3.1223-0.9371 6.9629-0.338 5.9095 4.3588 10.888 10.278 10.887 11.216-0.0016 30.128-0.0018 51.251-0.0016 5.5072 2e-4 9.5616-0.574 9.9762-9.9712 0.1665-3.7733-1.6475-7.1882-1.2092-10.371 3.2627-12.994 2.5361-26.472 2.9635-39.737 0.3135-5.7135-2.4222-11.626-0.3562-17.14 3.6619-4.36 14.177-6.6823 14.875 1.2679 2.4648 15.673 5.4855 31.303 7.1667 47.104 1.0829 6.4829-1.9377 12.581-4.8728 18.138-0.027 0.0078-0.0571 0.137-0.0892 0.3615-0.7836 5.4788 3.5781 10.35 9.1125 10.351 39.179 0.0057 70.651 0.0321 70.651 0.0321h0.0018c3.5398 0 5.9818-3.6489 4.5289-6.877-1.3842-3.0754-3.5474-5.7736-6.3668-7.741-4.0782-2.8457-7.371-7.0687-9.5341-11.329 2.1232-4.4882 3.2061-9.3751 4.1179-14.205 1.3108-7.2094-1.4961-14.262-1.2968-21.443-0.0427-7.7369 3.9753-14.975 3.3484-22.754-0.3135-6.2263-7.4374-9.5033-7.4944-15.73 1.3391-7.5085 6.1409-13.749 8.9049-20.731 6.0696-15.644 10.657-32.158 10.657-49.055-0.0426-15.359 6.6823-29.436 12.296-43.371 2.2084-5.7987 5.6281-11.698 4.4169-18.138-0.9404-9.0901-7.1525-16.399-9.2614-25.119 2.8639-1.6814 6.4259-3.4053 6.6968-7.181 2.0371-12.766 4.5449-26.131 0.9545-38.854 0.0284-8.1356 3.1202-15.944 3.9324-24.022 2.6786-26.188 2.6929-52.703 7.2665-78.677 1.3108-6.5684 8.4203-8.734 13.536-11.598 8.3351-4.5879 12.139-13.749 17.553-21.058 7.9076-11.712 22.383-16.128 31.488-26.686 7.4091-7.5371 9.1758-18.337 11.968-28.097 7.4943-30.32 13.094-61.066 18.551-91.799 3.5334-21.272 7.4087-42.587 7.9073-64.187 1.1257-23.822-2.0944-47.531-3.8468-71.225-0.5555-3.3909 1.0402-6.5255 2.4647-9.4606 4.7732 4.0037 7.124 10.173 10.828 15.132 10.871 15.373 20.318 31.815 32.456 46.263 4.7589 5.5851 12.966 3.8041 18.95 6.554 4.3599 7.2949-2.0518 15.231-1.2395 22.868 1.2111 5.0153 5.3002 11.356 11.284 10.059 8.8196-2.1942 17.112-6.0838 25.689-9.0616 6.8676 5.3287 5.5282 15.673 10.444 22.497 4.1746 8.05 15.829 6.5398 19.876 14.59 3.2201 5.9271 7.0668 11.897 7.8936 18.75-1.4678 6.1552-9.5037 6.2122-13.464 10.088 0.3419 4.2173 5.8274 5.0295 9.2896 4.83-2.8782 1.3679-6.1836 2.408-7.9788 5.2576 2.6643 4.0464 8.4064 3.3197 12.581 4.3883 3.7615 1.0116 7.2948-0.4274 10.757-1.7667 7.3944 21.814 14.804 43.67 24.264 64.7 2.707 5.6564 7.3091 10.544 13.222 12.894 5.9701 2.4506 12.453 3.277 18.636 5.1007 14.034 4.374 27.199 11.071 41.02 16.043 8.449 3.5477 11.626 13.037 14.02 21.13 3.6902 13.322 4.0464 27.27 5.2004 40.963 1.2538 18.921 2.3651 38.142-1.382 56.878-3.6903 17.995-5.8988 36.247-8.8337 54.384-2.4647 17.596-5.7419 35.121-6.9672 52.874 1.0543 4.7731 7.2949 1.1399 9.5603 4.0607-1.5674 15.345-5.7278 30.277-8.0216 45.522-0.9689 8.5916-1.7097 17.297-4.431 25.575-1.4821 5.6138-4.0892 11.698-1.5957 17.411 1.0685 3.334 3.847 7.067 1.553 10.543-3.4623 5.2719-9.318 8.8763-11.441 15.06-2.7072 8.0502-3.847 17.496 0.057 25.347 2.5503 5.229 10.144 6.9672 10.857 13.094-3.4336 18.209-13.08 34.323-21.5 50.566-4.0035 6.7535-7.4231 13.863-9.0902 21.571-0.1011-0.0015-0.2173 0.1506-0.3418 0.41-1.4237 2.9689 0.9088 6.3942 4.2013 6.3942h56.968c2.0916 0 3.4528-2.1609 2.5918-4.067-0.6993-1.5485-1.2764-3.1699-1.9973-4.6465-2.7212-7.6794-7.0525-15.73-4.6304-24.065 3.6332-11.484 8.4917-22.554 13.877-33.297 1.838-4.5593 8.1641-5.0723 9.5319-9.9594 0.983-5.2289-1.1255-10.444-0.6696-15.672 1.4817-3.448 6.3545-2.8782 8.2637-5.9843 2.3365-3.4338-0.0427-7.5087 0.3419-11.227 1.0543-7.4658 2.2369-15.402 7.0953-21.471 2.1801-3.6475 7.1239-5.2434 7.9077-9.7454-0.3989-5.0582-4.9155-9.0192-4.2173-14.291 0.6268-7.6941 2.1941-15.316 4.4169-22.711 0.4701-4.0463 8.6482-5.1862 8.4916-0.2847 0.912 10.572 1.3538 21.5-1.7666 31.773-0.9832 4.5594-2.8639 9.2753-1.724 13.992 1.2966 5.4 7.2378 7.8363 9.0331 12.994 2.7356 8.2496 2.7642 17.753-1.7524 25.39-3.1204 4.4315 2.0374 6.9958 4.3739 9.931-1.7096 5.5566-5.0009 10.999-4.26 17.026 1.6528 8.1212 7.2522 14.818 8.9619 22.939 0.3706 6.8391-9.0615 9.1472-9.0901 15.773 1.8665 4.5876 7.2378 5.7275 10.971 8.3491-0.2924-0.2053-1.8599 4.3867-1.952 4.7908-0.4028 1.767-0.5913 3.5726-0.8503 5.3638-0.2529 1.7491-0.5546 3.5129-1.2014 5.166-0.3175 0.811-0.7146 1.5911-1.213 2.3064-0.3455 0.4957-0.8632 0.9158-1.1112 1.4742-0.3046 0.6852-0.2006 1.4255-0.2009 2.1709v0.0623c0 2.8827 2.3336 5.2197 5.2163 5.2198 2.761 2e-4 6.0236 4e-4 8.2142 4e-4h84.674c3.2571 0 6.0845-2.2681 6.7731-5.4515 0.5591-2.5851 0.7153-5.0432-1.7906-6.8547-8.9905-4.1891-19.434-3.9326-28.425-8.1641-6.1123-3.3767-11.242-8.2209-16.043-13.194 1.6387-5.2859-5.571-6.5967-5.7847-11.17 2.0519-2.7922 6.5825-4.6304 5.7562-8.7908-0.983-4.7302-3.5763-9.1185-3.4766-14.034 0.2993-14.276 2.4935-28.538 1.4817-42.829-0.2562-5.1864-0.7549-10.373-0.698-15.545-0.4274-4.1033 4.0038-6.3116 4.4167-10.159-0.584-2.8923-3.2769-4.5023-4.9296-6.668 0.8549-0.4987 2.5646-1.4818 3.4337-1.9661 1.5101-3.5336-2.5931-6.1125-3.7188-9.1758 2.2369-0.3136 7.3948 0.4559 6.5969-3.2058-2.7784-5.0437-8.6058-9.589-6.9957-15.986 2.4648-10.102 7.423-19.434 9.5887-29.621 1.3961-7.1951-0.0571-14.519 0.4132-21.756 0.1139-2.5076 1.3678-5.8275 4.303-6.0553 8.064-0.4133 14.874 5.1434 22.711 6.0269 4.2173-1.4391 5.5138-6.141 6.9672-9.8596 5.2574-16.029 6.7533-33.055 5.984-49.854-0.6531-29.9-3.3857-59.927-10.637-88.996 0.5264-0.228 0.3798-0.1646 0.9061-0.3926 3.6711 5.6133 6.8279 11.544 10.571 17.123 0.9546 1.4391 2.6501 4.0607 4.6876 2.2939 7.6084-5.2717 14.818-12.139 24.35-13.55 6.8959-0.9119 13.963-1.0973 20.873-0.1282 1.4106 2.0087 2.3795 4.6589 4.7446 5.7844 2.4648 0.8547 3.3625-2.5219 4.6448-3.8896 2.7499 1.8807 4.3171 5.7134 8.0216 6.0553 2.4078-0.0143 4.8159-0.6268 7.2808-0.812 3.2198 0.9688 2.6786 5.6564 5.7134 6.9244 3.7186 0.7267 4.887-4.1462 8.1639-4.9014 3.2769 5.7277 5.4569 14.134 13.735 13.821-1.7667 3.4907-3.3058 7.1382-3.8756 11.042-0.0997 2.7498 2.8638 3.0632 4.7732 1.9376 8.3206-3.277 17.14-9.361 18.194-18.978 1.0969-9.3466 2.1088-21.4-6.8104-27.384-6.1124-3.9325-8.4207-12.552-4.9868-18.978 6.041-12.296 12.452-24.492 20.175-35.834 2.9066-4.7588 10.187 2.1086 12.766-3.4337 1.1827-6.3545-2.4222-13.393 1.2255-19.477 5.984-10.814 12.182-21.5 17.14-32.841 2.7498-5.5851 5.2288-11.398 9.1185-16.342 6.782 1.8523 10.529 9.0616 11.242 15.644 2.1943 13.165-2.5646 25.945-5.6135 38.555-3.7188 16.314-11.056 31.63-13.422 48.286-2.123 15.174-2.9922 30.519-3.3911 45.835 0 10.087-0.4845 20.36 1.838 30.262 3.0918 12.253 16.257 19.32 17.553 32.314 1.1969 17.168-2.4792 34.223-2.6359 51.392-0.7266 15.088 2.7073 29.963 6.4829 44.468 2.1656 7.6228 4.2316 15.331 7.6368 22.526 2.1372 5.115 9.546 4.7158 11.441 9.9022 2.7355 11.925 4.0463 24.122 5.6707 36.232 1.8949 17.781 4.1034 35.662 3.2769 53.586-1.3535 12.21-7.1808 23.352-12.909 34.038-3.7899 7.3376-9.3322 13.778-11.925 21.7-0.9346 2.8749 0.8069 5.1788 3.3702 6.1809 3.2565 1.2731 6.8893 0.7463 10.386 0.7463h65.118c5.0867 0 9.1838-4.1716 9.0891-9.2574-0.1084-5.8295-0.2485-12.261-0.3389-12.274-1.4963-10.258 1.439-20.944-0.5845-31.231-1.3533-5.3857-7.4514-6.5542-10.7-10.316-2.5928-4.2174-0.7122-9.2753-0.9119-13.863-0.7834-2.8352-4.0178-3.1914-6.2971-4.146 0.5127-11.527 3.2056-22.839 4.3738-34.309 2.1799-14.305 3.3057-28.809 6.6252-42.915 0.5701-4.545 5.6138-2.8066 8.5774-1.9376 7.4231 2.593 15.53 2.1515 22.91 4.8301 1.6101 8.0073 1.0686 16.228 1.4678 24.35 0.7693 18.551 3.0632 37.045 2.7212 55.638-0.8262 9.2896-3.0776 18.508-6.6824 27.114-1.6099 3.4766-8.1211 6.0839-4.9297 10.501 3.3708 4.4475 0.5581 10.303 0.2708 15.231-0.1321 0.0248-0.3621 8.3685-0.4714 15.725-0.0559 3.7722 2.9822 6.8607 6.7549 6.8607h82.813c3.656 0 7.312 0.0614 10.968 0.0697 2.1455 0.0049 8.3975-3.1379 5.7122-11.571-2.8157-8.8414-14.248-10.458-21.856-14.96-7.0386-4.1178-15.573-7.4232-19.221-15.288-6.0552-11.256-4.2744-24.321-3.9038-36.56 1.0688-23.708 1.7527-47.488 4.3884-71.083 0.114-5.3572 6.8816-3.9894 10.159-6.3545 2.7217-1.9092 1.2822-5.4285 0.8547-8.0215-4.4878-17.881-10.216-35.734-10.415-54.327 0.4414-15.473 4.0605-30.662 8.4063-45.451 2.123-6.7108 4.1318-13.521 7.3379-19.805 2.9063-5.2574 10.956-3.3483 13.849-8.677 1.9661-6.739-6.0981-11.797-4.0605-18.636 3.9749-18.323 10.628-36.446 9.6882-55.467-1.4104-34.309-5.3857-68.447-7.8079-102.7-0.6697-2.8209 2.0232-4.4454 3.8186-6.0126 7.5083 12.453 12.738 26.131 19.805 38.84 3.5474 6.2122 10.344 10.971 10.714 18.693 0.2849 9.5889-2.3508 18.935-3.5332 28.41-0.2852 2.6927 1.3105 5.1292 2.0518 7.6796 5.3855 14.39 0.7549 30.063 3.8181 44.838 3.4624 3.6047 9.6602 2.2939 13.279-0.5128 7.8079-6.3263 14.59-14.718 16.727-24.734 1.8237-8.0786 1.0972-16.485-0.2566-24.563-2.2083-10.43-8.5627-19.477-10.444-30.006-2.5503-13.621-1.7383-27.555-2.7214-41.305-0.1282-5.8844-5.2146-9.9735-6.2119-15.53 0.4272-6.8105 6.5969-11.056 11.27-15.202 9.5747-6.839 20.033-12.339 30.091-18.408 2.3655-1.5815 5.229-2.6501 7.01-4.9583 0.0712-2.0386-1.2537-3.6629-2.1941-5.2728zm-481.91-55.282c2.0803-1.1398 3.3341 2.5789 1.9662 3.9325-2.1229 1.0543-3.2913-2.7071-1.9662-3.9325zm-441.11-534.41c3.1632-0.5984 0.4276 5.457-0.356 1.268l0.356-1.268zm-1179.1 915.65c-3.8185 6.8248-8.5487 13.493-15.046 18.024-0.9119-11.099 1.2681-22.127 2.5077-33.112 5.2717-1.9661 8.5915 3.7188 11.541 7.0812 1.8238 2.2368 2.7499 5.4143 0.9974 8.0073zm1729.9-144.46c-0.8691-2.3223-2.3367-4.4879-2.4935-6.9956 1.9379 1.0972 4.1464 2.3082 4.9299 4.6021-0.8548 0.7551-1.6668 1.5531-2.4364 2.3935z"/>
</svg>
