<?xml version="1.0" encoding="UTF-8"?>
<svg enable-background="new 0 0 1240 1704" version="1.1" viewBox="0 0 1240 1704" xmlns="http://www.w3.org/2000/svg">
 <path d="m1074.8 1652h-377.96c0.354-2.099-0.595-4.051-0.677-6.121-1.093-27.582 8.318-59.615 3.793-64.349-2.703-2.828 2.122-1.417 2.512-7.191 40.163-594.72 29.935-509.6-35.111-434.31-10.27 11.889-28.435 26.215-36.298 35.303-9.229 10.667-20.068 12.32-30.825 6.309-23.951-13.385-30.917-11.316-47.66-32.138-13.494-16.781-25.281-23.923-31.701-32.33-0.764-1-17.674-20.913-18.198-8.836-1.857 42.764-39.975 234.63-42.82 237.58-0.967 1-7.191 12.922-22.189 20.638-3.403 1.751-19.595 16.079-23.319 16.961-7.332 1.737-17.834 12.743-20.438 13.324-4.066 0.907-7.782 3.357-17.862 17.326-4.805 6.66-0.869 10.744-0.927 15.209-0.052 3.983-2.254 1.137-5.28 4.453-12.484 13.683 3.742 3.457-1.901 45.186-0.862 6.378 3.563 6.905 15.987 11.063 9.711 3.25 11.798 38.795 11.545 46.943-0.912 29.332 12.99 53.636 10.894 94.211-0.379 7.335 1.228 14.181 4.274 20.771h-230.85c2.013-3.537-0.88-2.514-7.874-16.842-49.495-101.4-64.371-86.168-102.22-195.6-20.195-58.395 12.583-118.85 30.378-186.36 4.573-17.348-6.149-24.287-0.137-43.283 3.113-9.836 15.037-19.371 2.709-27.198-7.186-4.565 3.07 2.983 59.99-138.24 8.499-21.085 6.631-57.309 12.251-70.481 0 0 4.606-37.519 25.508-102.41 35.499-110.21 45.743-94.881 63.333-123.58 3.762-6.14 20.763-21.273 22.478-22.512 28.021-20.25 28.057-12.885 31.643-20.182 8.773-17.852 20.664-12.689 24.893-16.692 9.234-8.74 5.388-5.877 29.974-17.306 6.099-2.835 15.61 6.083 16.706 7.697 2.863 4.216 5.445-2.422 7.178-7.214 2.449-6.774-5.06-4.799-3.623-10.071 12.355-45.342 5.162-58.417-1.461-71.632-25.602-51.088 67.397-128.14 104.24-119.98 1.314 0.291 2.849 0.352 3.934-0.287 7.344-4.328 19.191-3.886 32.444-3.735-1.584 1.957-3.719 0.344-5.151 1.51 0.713 0.983 1.682 1.007 2.669 1.024 15.527 0.278 38.88 1.637 50.637 13.409 6.389 6.397 6.034 8.054 10.948 8.837 14.773 2.353 15.424 16.116 35.73 23.939 2.361 0.91 3.866 4.159 3.974 5.16 0.338 3.14 4.088 3.556 4.894 6.421 0.288 1.024 2.196 0.658 3.308 1.103 19.033 7.612-6.912 20.451 12.147 24.456-1.483 0.765-2.98-0.067-4.188 1.154 1.354 1.376 3.548-0.034 4.655 1.771-1.622 0.704-3.449-0.589-4.924 0.974 1.763 1.214 3.763 0.663 5.81 1.094-1.249 1.123-2.61 0.134-3.724 0.838 6.088 9.298 6.11-4.428 5.516 11.766-0.038 1.032-3.162 4.291-3.76 4.657-6.826 4.183 5.238 30.029-13.748 26.764-2.054-0.353-8.124 1.613-7.136 6.893 1.258 6.719-2.279 14.746-1.79 17.862 1.257 8.013-12.619-6.425 4.813 32.589 3.151 7.051 10.202-1.448 16.503-8.433 10.488-11.624 25.946-22.107 34.263-30.951 1.14-1.212 14.642-9.018 16.174-14.429-12.66-2.657-42.955-74.904-10.804-105.06 21.074-19.769 58.052-46.634 63.249-49.264 0.744-0.376 1.371-1.357 1.149-2.638-8.056-2.074-2.531 3.499-20.757 0.552-1.053-0.17-0.978-1.06-1.105-1.819 3.932-0.759 8.046-0.294 11.322-3.244-1.277-1.037-2.635-0.25-3.667-0.868 0.24-0.812 1.257-0.22 1.367-0.973-0.807-1.158-2.408-0.801-3.36-1.511 0.243-0.94 1.278-0.584 1.352-1.362-1.298-1.432-3.722-0.428-5.045-2.09 2.399-1.701 6.011-3.569 2.429-6.269-0.789-0.595-0.159-0.698 0.089-0.893 2.013-1.584-1.571-0.877-0.695-2.065 6.78 0.553 4.541-3.996 2.498-5.012-4.282-2.131-13.334-12.283-13.334-12.283-8.484-2.921-7.166 0.947-19.551 0.1-12.098-0.828-24.961-6.868-26.443-2.12-0.312 1-8.943-2.016-8.504-5.585 0.155-1.257-0.631-9.527-5.964-9.611-7.492-0.119-4.139-8.591-4.859-9.592-7.257-10.076-5.647-2.907-12.015-12.955-19.864-31.345-16.421-74.889-16.971-101.9-0.077-3.782-1.81-7.301-1.602-11.09 0.2-3.645-0.138-36.938-0.588-37.367 1.42-2.383 0.202-4.553-0.268-6.911-2.079-10.421 3.446-18.589-0.844-19.811-2.114-0.602-2.455-22.077 7.542-38.13 7.625-12.244 21.513-16.57 22.966-21.491 0.33-1.118 1.669-1.246 2.656-1.706 2.648-1.234 4.466-3.467 6.06-5.782 0.427-0.62-0.176-1.946 1.402-1.57 0.216-1.596 3.299-1.208 2.45-3.552-0.286-0.791 1.96-0.566 1.921-2.33-0.162-7.295 18.9-14.768 19.152-19.593 0.26-4.969 3.675-3.518 4.635-4.595 13.334-14.973 21.816-28.724 30.749-30.63 3.014-0.643 96.959-49.076 178.84 70.381 3.737 5.451 1.337 6.839 3.705 7.512 2.62 0.744 1.541 3.754 3.302 4.917-0.767 3.615 0.416 3.394 7.425 14.762 0.644 1.044 0.145 2.581 1.94 3.3 1.192 0.478 0.28 2.256 0.807 3.519 0.715 1.714 3.031 0.762 3.107 2.477 0.061 1.383 6.793 7.64 6.114 12.089-0.129 0.843 0.903 2.639 1.497 2.681 2.579 0.183 1.6 1.889 1.837 3.226 0 0 9.055 15.239 9.056 15.24 2.917 3.927 0.204 4.223 2.201 5.981 1e-3 1e-3 52.703 79.814 52.703 79.815 0.145 1 2.318 9.236 8.426 8.508 5.099-0.609 2.066 0.934 2.211 1.934 0.128 0.887 3.223 1.287 3.941 1.085 1.841-0.517 2.403 1.164 3.599 1.691 1.245 0.549-0.966 1.357-0.313 1.286 2.016-0.22 3.283 1.876 5.325 1.344 2.551-0.664 5.098-0.566 7.528 0.673-0.464 0.234-0.932 0.219-1.383 0.302-3.982 0.729 0.047 0.456-2.515 2.949 1.582 1.304 0.745 3.188 1.153 4.771 0.88 3.419 3.598-0.204 4.875 0.763-0.413 5.512-4.48 1.317-6.377 5.841 2.182 0.117 2.446 2.365 4.01 3.106 3.344 1.585 1.65 6.607 6.238 7.203 4.458 0.579 1.826 5.649 3.51 5.839 0.715 0.081 0.534 0.828-2e-3 0.8-4.385-0.233-0.515 9.35-1.118 10.639-2.285 4.885 2.227 6.482 1.407 11.045-0.806 4.485-0.529 4.955 3.608 16.021 3.307 8.845-4.594 10.69 2.653 21.603 28.904 43.525 59.541 107.93 60.018 109 6.815 15.201 16.887 26.6 29.135 50.74 55.612 109.61 44.67 116.6 25.524 132.39-26.608 21.944-18.723 17.194-35.191 32.067-13.789 12.453-19.66 8.813-36.056 22.709-49.334 41.81-90.87 47.35-80.581 60.752 2.101 2.737 4.163 5.571 5.145 9.03 0.851 2.997 4.101 1.724 6.585 6.528 9.391 18.16 29.145 86.48 25.964 90.038-1.306 1.46-0.856 1.704 0.228 18.578 0.433 6.745 5.151 2.88-0.053 26.536-10.814 49.146 5.731 75.606 8.012 159.89 0 3e-3 17.735 526.51 17.736 526.51 0.648 3.533 0.755 7.245 2.659 10.47zm-607.46-877.27c-28.113 11.84 13.271 17.527 21.304 37.515 1.683 4.187 6.788 6.665 8.553 12.902 0.226 0.797 9.035 19.37 9.219 19.693 1e-3 1e-3 -0.24 3.489 2.447 7.441 4.329 6.367 5.414 19.066 5.05 20.243-2.17 7.009 6.104 11.138 4.578 20.084-0.176 1.029 0.152 1.882 0.727 2.718 2.404 3.5 0.74 10.459 2.639 12.568 3.095 3.436 4.755 7.488 3.863 12.278-0.479 2.575 1.17 2.099 1.809 6.549 1.426 9.932 4.794 8.909 6.069 13.924 1.971 7.754 3.686 5.125 7.768 11.322 1.349 2.049 3.044 2.775 4.922 1.552 12.72-8.287 83.85-52.603 74.047-63.002-41.689-44.222-41.633-102.79-37.657-116.19 1.693-5.704-4.645-3.909-14.698-5.253-7.402-0.989-35.02-26.348-35.93-27.348-12.575-13.83-25.332 16.421-64.71 33.004zm521.85-78.193c-8.044-1.181-2.55 8.913-12.019 6.692-3.129-0.734-1.987-20.12-2.911-20.521-3.76-1.634 0.454-6.18-2.259-7.179-6.675-2.456-9.524-9.087-10.333-4.973-3.578 18.218-3.625 40.715 13.663 70.271 6.988 11.947 70.889-61.726 78.849-70.457 17.724-19.442 25.548-12.25 9.582-31.15-21.132-25.016-11.56-26.444-44.648-3.986-27.768 18.847-32.967 13.784-29.568 54.925 0.188 2.256-1.941 3.955-0.356 6.378zm-273.36 251.29c-0.733-2.885 1.251-5.941-1.63-6.493-39.288-7.523-6.016-25.953-61.611 30.01-76.857 77.37-71.788 67.526-68.133 73.393 10.816 17.36 11.78 27.187 31.448 7.73 1.809-1.79 54.064-48.14 58.165-49.041 1.978-2.914 5.784-3.755 7.636-6.947 1.789-3.084 2.663-2.425 6.452-4.965 9.154-6.138 26.479-26.459 26.652-28.956 0.343-4.927 0.683-9.855 1.021-14.731zm-123.94-203.97c5.104-2.054 12.776-14.302 6.228-11.358-3.763 1.691-9.932 10.919-6.228 11.358zm33.645-55.941c0.273-3.308-15.016-1.584-10.713 1.585 3.874 2.852 10.336 2.984 10.713-1.585z"/>
</svg>
