<svg id="Calque_1" data-name="Calque 1" xmlns="http://www.w3.org/2000/svg" viewBox="0 0 238.93 340.93"><path d="M10.81,269.31c.88,5.2,1.91,19.06,2.29,30.79s1.08,21.56,1.54,21.85.85,2.49.85,4.9.39,4.62.86,4.92c.28.17.8,2,1.38,4.77q19.35,0,38.7-.25c0-3,0-6.61,0-10.94,0-12.38.07-25.09.08-28.25s.46-5.75,1-5.75a1.1,1.1,0,0,1,1,1.17,5.46,5.46,0,0,0,1.37,2.75c.75.87,2.55,5.78,4,10.91a176.81,176.81,0,0,0,8,21c1.28,2.78,2.55,5.78,3.79,8.9,34.84-.38,69.69-.74,104.53.08a517.32,517.32,0,0,1,52,3.93l6.71.84c-1-2.87-2-5.76-3-8.58-4.81-14-9.23-26.12-9.83-26.89-2.13-2.72.27-110.39,2.58-115.61.49-1.1,2-3.8,3.33-6a17.06,17.06,0,0,0,2.46-7.72c0-3.39-.44-4-5.23-7.09-10.34-6.66-20.85-19.33-25-30.19-2.67-6.95-7.94-30.06-8.09-35.5-.07-2.47.23-18.45.67-35.5.91-35.17,1.45-32-7.84-45C181.67,12.61,175.6,7,167.85,3.28L161,0l-16.5,1.12C135.41,1.73,125.3,3,122,3.84,108.11,7.58,96.8,15.47,89.41,26.59c-5.75,8.65-7.6,14-8.9,25.76-2.6,23.43-6.73,43-16.14,76.5-7.55,26.9-10.9,32.12-30.85,48C17,190,16.05,191.33,8.51,211.35c-2.79,7.43-6,14.75-7.1,16.27s-1.69,3.33-1.28,4c2,3.32,6,7.73,7,7.73.77,0,1.31,3.41,1.62,10.25A197.79,197.79,0,0,0,10.81,269.31Z"/></svg>