<svg id="Layer_1" data-name="Layer 1" xmlns="http://www.w3.org/2000/svg" viewBox="0 0 839 851.15"><path d="M59.5,224.13a2.57,2.57,0,0,0-1.09.11c-.24.15-.3.61-.49.9a6.42,6.42,0,0,1-.86.7c-.28-1.45-.52-2.7-.75-4l0,0-2,2.69c0-.92,0-1.52,0-2.13l0,0c-.15-.76-.58-1.59-.41-2.25.79-3.12-.9-5.63-1.56-8.79-2.35,2.35-2.37,5.35-3.54,8A4.79,4.79,0,0,1,48,215c1.81-5.78,3.43-11.65,5.59-17.29,1-2.62,3.08-4.8,5-7.68-4.6,3.58-9,6.57-11.94,11.28a8.18,8.18,0,0,0-1,5.64c.57,3.85,1.17,7.7,1.69,11.56a15.66,15.66,0,0,1-.1,2.73l-.69.16-1.8-3.86v3.74l-.57.13c-1.37-3-2.05-6.24-3.29-9.27s-2.48-6-3.83-9c.6,4.4,2.2,8.49,3.5,12.68.33,1.08.57,2.2.86,3.31l0,0A42.57,42.57,0,0,1,39,214.3c-1.22-3.32-2.2-6.73-3.28-10.1-.16-.49-.34-1-.71-2-1.39,2.72-3.21,4.62-2.51,7.74a59.79,59.79,0,0,1,1,8.42,15,15,0,0,1-3-5.63c-.6-2.11-1.13-4.24-1.78-6.7l-1.11,1.22c-.08-.09-.28-.2-.27-.28.23-2.15,1.23-4.25.24-6.62-1.58,2.09-1.37,4.75-2.54,7.27a9.6,9.6,0,0,1-.45-4.9,17.81,17.81,0,0,1,.8-3.89c3.17-9.57,6-19.27,10.18-28.45,1.2-2.64,2.69-5.14,4-7.71a3.37,3.37,0,0,0,.47-2.08A5.58,5.58,0,0,0,39,161.63a87,87,0,0,0-5.17,9.16c-3.31,7.7-6.31,15.54-9.45,23.31-.66,1.64-1.41,3.24-2.06,4.88-.84,2.13-1.61,4.29-2.41,6.42a2.25,2.25,0,0,1-1,1.26v-1.77l0,0a10.25,10.25,0,0,1-.28-2.3,19.32,19.32,0,0,1,.78-4.17c3.23-9.33,6.42-18.68,9.88-27.92,1.17-3.11,3.09-5.91,4.65-8.85.28-.54.52-1.1.78-1.65l0,0a43.69,43.69,0,0,0-14.31,10,9,9,0,0,0-2.53,7c.35,4.23.75,8.46,1.16,12.68a6.3,6.3,0,0,1-.29,3.72c-1.25-.49-1.33-1.63-1.65-2.56-1.68-4.83-3.32-9.67-5-14.51a3.16,3.16,0,0,0-1.06-1.62,24.69,24.69,0,0,0,.46,2.86c1,3.48,2,7,3,10.43.27.93.47,1.88.7,2.82l0,0a18.57,18.57,0,0,1-2-3.61c-1.39-4.56-2.65-9.17-3.83-13.8a11,11,0,0,1,1.71-8.87,29.53,29.53,0,0,1,7.39-7.32,13.61,13.61,0,0,0,4.35-6.36l0,0a6.86,6.86,0,0,0-4.16,3.43,8.73,8.73,0,0,0-2.65.55,44.55,44.55,0,0,0-9.59,8,13.57,13.57,0,0,0-3.15,13.5,96.47,96.47,0,0,1,2.17,13.33,15.87,15.87,0,0,1-3.59-7.41c-.65-2.94-1.13-5.92-1.71-8.88a13.52,13.52,0,0,1,1.49-8.74,23,23,0,0,1,6.09-7.48,91.76,91.76,0,0,1,8.76-6.49,10.3,10.3,0,0,0,4.38-5.28,27.55,27.55,0,0,0,2-10.34l-1.62,1a13.32,13.32,0,0,1,0-3.22c.59-2.31,1.33-4.58,2.12-6.82,1.26-3.58,2.55-7.15,2.15-11.57l-4.18,5,0,0c0-.37-.06-.74-.08-1.11l0,0-.51,1.07,0-.06c-.19.38-.37.75-.56,1.12l0-.05-2.15,4.17,0,0c1.14-7.35,5.58-12.14,11.49-15.72,2.14-1.3,4.37-2.42,6.55-3.62,1.43-.79,1.43-.79,1.94-3a3.39,3.39,0,0,0-1,0,43.06,43.06,0,0,0-17.11,9.79,18.36,18.36,0,0,0-5.57,9.92c-.67,3.39-1.48,6.75-3.43,9.65-.48.72-1.07,1.36-1.6,2l0,0c0-.37,0-.74-.08-1.1h0L9,134l0,0-3.92,5.29-.35-.13.66-2.46a34.16,34.16,0,0,0,5.72-12.7c.06-.22.11-.45.14-.58l-.11.63q-2.64,5.6-5.25,11.2a11.74,11.74,0,0,0-.46,1.49H4.4l2.29-5.42a69.86,69.86,0,0,0,2.9-7.09,39,39,0,0,1,8-15A9,9,0,0,0,19.17,106c-2.36,1.27-3.56,3.65-5.3,5.51a16.83,16.83,0,0,1,3.84-6.1,14,14,0,0,0,2.51-4.52,131.36,131.36,0,0,1,6.3-13.36c2.07-3.7,5.86-5.35,9.52-6.92a39.06,39.06,0,0,1,16.25-3.29c2.14,0,4.28,0,6.43,0A170.34,170.34,0,0,0,84,75.48c5.16-.76,10.36-1.23,15.54-1.84a9.5,9.5,0,0,0,1.77-.31A42.54,42.54,0,0,1,114,71.44a2.76,2.76,0,0,0,2.94-1.92c2.23-5.07,4.71-10,7-15.08a18.36,18.36,0,0,1,4.36-5.84c3.15-3,6.4-5.87,9.5-8.92a13.74,13.74,0,0,1,5.34-3c3.47-1.21,6.68-3.18,10.36-3.75a38,38,0,0,0,6-1.71c2-.65,4.34-.41,6.54-.44a12.35,12.35,0,0,1,4,.37,65.2,65.2,0,0,1,7.52,3.19c1.85.91,3.54,2.15,5.32,3.21,7.67,4.55,12.51,11.62,16.3,19.64a3,3,0,0,1,.17.5c2.84,9.28,5.91,18.5,8.41,27.88,1.4,5.27,1.88,10.81,2.72,16.24a26.88,26.88,0,0,0,1.87,6.88,12.77,12.77,0,0,1,1.29,4.83,126.71,126.71,0,0,0,.81,13.77,10.6,10.6,0,0,1-.38,3.91c-1.63,6.17-3.22,12.35-5.09,18.43-.92,3,0,5.81.11,8.69,0,.46.65,1,1.13,1.28,5.49,2.79,10.46,6.84,16.79,7.65a2,2,0,0,1,1,.32c4.69,3.62,10,6.38,13.89,11.13,3,3.7,6.44,7.08,9.7,10.59,1.29,1.39,1.35,1.89.26,3.42a1.59,1.59,0,0,1-.15.21c-3.9,3.44-3.49,7.77-2.34,12.24a20.46,20.46,0,0,1,.79,2.53c.81,6.25,4.25,11.36,6.78,16.85,6.62,14.32,15.93,26.91,24.09,40.24a72,72,0,0,0,8.4,11.73c1.4,1.52,2.29,3.53,3.54,5.22a30.44,30.44,0,0,0,4,4.77c3.79,3.32,7.82,6.33,11.61,9.64,4.31,3.76,8.48,7.71,12.69,11.59,5.31,4.88,10.57,9.81,15.91,14.64,1.21,1.1,2.68,1.87,4,2.85,2.41,1.81,4.88,3.56,7.16,5.54,6.3,5.46,12.42,11.15,18.8,16.51a90.45,90.45,0,0,0,9,6.09c1.88,1.23,3.9,2.24,5.69,3.59a6.54,6.54,0,0,0,5.79,1.19,28.4,28.4,0,0,0,8.17-3c5.38-3.06,11.11-5.47,16.7-8.13a18.44,18.44,0,0,0,7.64-6.84,40.74,40.74,0,0,1,4.11-5.06,4.36,4.36,0,0,0,1.42-3.72,5.19,5.19,0,0,1,6.33-5.84,4.06,4.06,0,0,0,4.13-1.45,179.35,179.35,0,0,0,12.1-14.75c5.91-8.23,11.92-16.4,18.38-24.17,5.52-6.64,11.68-12.71,17.63-19,7.11-7.45,14.28-14.82,21.45-22.2,1.32-1.36,2.19-2.7,1.23-4.69a2.16,2.16,0,0,1,.63-2.59c7.1-7.69,14.31-15.27,21.11-23.23,3.33-3.89,5.83-8.54,8.73-12.82,1.28-1.88,2.69-3.67,3.93-5.58,5.09-7.87,10.09-15.81,15.23-23.66,2-3,4.2-5.82,6.29-8.74,1.83-2.57,3.55-5.21,5.44-7.72a30.24,30.24,0,0,1,6.72-6.83,38.65,38.65,0,0,0,5.66-5.36A11.61,11.61,0,0,1,584.9,140c8.77-3.55,17.57-7,26.28-10.71,6.33-2.68,12.56-5.63,18.8-8.54,4.52-2.1,9-4.32,13.48-6.53,3-1.49,3.64-2.9,3.46-6.32-.18-3.62-.15-7.26-.09-10.88,0-3.09.54-6.23-1.49-8.93-2.64,1.2-4.15.53-4.73-2.13-1-4.76-1.92-9.54-3.07-14.26a22.46,22.46,0,0,1,.32-12.33,12,12,0,0,0,.08-6.83c-1.93-7.11-1.35-14.26-.42-21.4a23.2,23.2,0,0,1,4.14-9.94,46.08,46.08,0,0,1,12.6-12.68c4.26-2.84,9-4.23,13.38-6.62a6.82,6.82,0,0,1,2.7-.81c5.51-.37,11-1.83,16.55-.47a51.49,51.49,0,0,1,14.59,5.72c2.58,1.57,5.17,3.12,7.75,4.7a4.26,4.26,0,0,1,1.22.95c2.95,4,6.5,7.57,8.61,12.22a32.66,32.66,0,0,1,3.29,15.69c0,.69.18,1.39.19,2.09a31.07,31.07,0,0,1-.09,5c-.7,4.27-1.58,8.51-2.41,12.76-.12.59-.35,1.17-.54,1.79a17.36,17.36,0,0,1,2.18.85,2.72,2.72,0,0,1,1.76,2.92,7.73,7.73,0,0,0,.25,1.81,12.81,12.81,0,0,1-.4,5.76,28.28,28.28,0,0,1-4.63,9.1c-1.87,2.41-3.54,5-5.3,7.5a6,6,0,0,1-4.62,2.49c-3.16.33-4.54,1.67-5,4.87-.58,4.13-1.1,8.26-1.61,12.4-.35,2.81.29,3.55,2.77,4.5,2.22.86,4.31,2.07,6.45,3.14,3.82,1.92,7.56,4,11.47,5.73,6.36,2.74,12.89,5,19.22,7.83,5.19,2.29,10.21,5,15.25,7.61,3.72,1.93,7.22,4.25,11.15,5.85,3.67,1.49,6.45,4.59,9.35,7.36a39.08,39.08,0,0,1,9,14.1,61,61,0,0,1,2.49,9.74q3.18,14.67,6.22,29.39,3.94,19.14,7.77,38.3A88.63,88.63,0,0,1,805,252.94c.24,2.87,1.46,5.64,2.19,8.47,3.87,14.9,7.78,29.8,11.57,44.74,1.76,7,3.49,13.92,4.82,21,1.12,5.91,1.65,11.94,2.42,17.93Q827.4,356,828.77,367c1.15,9.24,2.26,18.49,3.43,27.73,1.38,11,2.76,22,4.22,33,.73,5.54,1.75,11,2.44,16.58a18.62,18.62,0,0,1-.24,6.05c-.93,4.51-2.08,9-3.26,13.42-1.75,6.64-5.36,11.85-11.35,15-4.72,2.51-9.48,4.94-14.24,7.36a16.93,16.93,0,0,1-2.58.85c-1.06-3.24-.43-5.39,1.63-7.38a78.17,78.17,0,0,0,5.44-5.92,4,4,0,0,0,.76-2.42c-.15-5.58-.39-11.17-.66-16.75a6.9,6.9,0,0,0-.58-2.84,6.55,6.55,0,0,0-2.13-2.49c-1.67-1-2.75-.4-3.08,1.62a19,19,0,0,0-.08,2.39c-.14,3.81-.23,7.63-.47,11.43a12,12,0,0,1-.88,3.59c-1.19,3-1.9,3.42-5.42,3.23a3.07,3.07,0,0,1-.38-.89c-.57-5-.9-10.08.09-15.12.24-1.21.39-2.45.61-3.67a16.14,16.14,0,0,0-.23-7.38,12.69,12.69,0,0,1,.44-8.33c3-7.55,5.77-15.18,8.74-22.74a12,12,0,0,0,.19-9c-2.08-5.63-3.83-11.4-5.76-17.09-2.61-7.7-5.19-15.42-7.93-23.07-5.23-14.66-10.14-29.42-14.3-44.45-3.8-13.73-7.82-27.4-11.86-41.06-1.78-6-3.84-11.95-5.8-17.92-.81-2.47-2.34-3.6-4.55-3.52a3.91,3.91,0,0,0-4,3.73,14.23,14.23,0,0,0,.22,3.44c2.07,12.69,4.35,25.34,6.21,38.07,1,6.83,1.29,13.78,1.89,20.67.26,2.92.51,5.84.73,8.76.1,1.41.21,2.83.17,4.25-.19,6.48-.45,12.95-.65,19.43a8.67,8.67,0,0,0,2.65,6.69,8.5,8.5,0,0,1,2.49,4.8c1.87,9.75,3.83,19.47,4.85,29.38.59,5.78,1.33,11.55,2,17.33a4,4,0,0,1,0,2.1c-.94,1.7-.21,3.21.12,4.85.49,2.41.78,4.87,1,7.32.73,7,1.4,13.95,2.1,20.93.18,1.76.28,3.53.6,5.27.93,5,.29,9.85-.81,14.73-1,4.5-1.9,9-2.62,13.58a34.43,34.43,0,0,0-.12,6.1c.11,4.26.33,8.52.39,12.78a18.63,18.63,0,0,1-.51,4.2c-.72,3.29-1.7,6.52-2.29,9.83a23.54,23.54,0,0,0-.35,6.59c.86,8.2,2,16.37,2.88,24.58.75,7.33,1.24,14.69,1.76,22a12.76,12.76,0,0,1-.41,3.4c-1.13,5.46-2.3,10.92-3.45,16.38a5.06,5.06,0,0,0,1.63,5.25c2.91,2.56,3.75,6.12,3.77,9.81a101.64,101.64,0,0,1-.66,12,13.42,13.42,0,0,0,1.14,7q3,6.95,5.72,14a25.35,25.35,0,0,1,1.16,4.33,231.15,231.15,0,0,1,3.5,31.18c.51,8.77,1.25,17.53,1.86,26.3s1.26,17.71,1.78,26.58a113.71,113.71,0,0,0,2.11,15.81c1.44,7.12,2.68,14.29,4.09,21.42a5.71,5.71,0,0,1-.92,4.77c-1.82,2.46-2,5.06-1.34,8,1.25,5.89,2.12,11.86,3.26,17.78A8.34,8.34,0,0,0,806.3,798c1.2.84,2.31,1.86,3.56,2.6,3.2,1.92,4,5.11,4.42,8.54a7.77,7.77,0,0,1,0,1.6,13.9,13.9,0,0,0,2.05,8.36,3.74,3.74,0,0,1,.54,3.53c-1.34,3.11-2.79,6.12-6.36,7.1-.41.11-.8.34-1.21.43-4.06.83-6.61,3.33-8.1,7.32a6.84,6.84,0,0,1-5.88,4.51c-2.8.38-5.56,1.07-8.35,1.48a9.94,9.94,0,0,1-4,0,139.22,139.22,0,0,0-23-4.15c-.5-.05-1-.19-1.57-.31a6.9,6.9,0,0,1-.24-1.59c.53-5,1.1-10,1.65-15.06,0-.44.11-.88.14-1.32.44-5.84.86-11.68,1.31-17.51a10.45,10.45,0,0,0-1.47-6.85c-2.91-4.48-3.8-9.86-5.88-14.72-2.8-6.52-3.67-13.5-4.39-20.44-.94-9-3.48-17.51-6.64-25.89a123.13,123.13,0,0,1-5-15.63,157.77,157.77,0,0,1-3.56-24.73c-.59-8.77-1.48-17.51-2.3-26.25-.5-5.3-.91-10.62-1.77-15.86-1.06-6.47-2.49-12.88-3.89-19.29a17.89,17.89,0,0,0-1.91-4.89A50.68,50.68,0,0,1,720,618.53c-3.5-11.88-7.32-23.67-10.66-35.6-1.93-6.89-3.26-14-4.71-21-3.14-15.18-6.3-30.37-9.19-45.61-1.52-8-2.54-16.11-3.63-24.2-.31-2.26,0-4.59-1-6.76-.91-1.94-2.43-3.07-4.19-2.84a4,4,0,0,0-3.4,4.05c.25,7.21-1.63,14.05-2.91,21-.88,4.78-1.25,9.67-1.71,14.53-1,11-2,21.92-3,32.89-.7,7.69-1.32,15.39-2.19,23.06-.54,4.75-1.39,9.47-2.27,14.16-3,16-8.11,31.37-12.21,47a39.66,39.66,0,0,0-1.33,7.56c-.74,12.69-2.35,25.26-4.06,37.83-1.27,9.32-2.64,18.63-3.59,28-1,10.15-1.64,20.35-2.38,30.54-.65,9-1,18.08-1.89,27.08-.43,4.38-1.76,8.67-2.71,13a83.57,83.57,0,0,1-4.75,14.6c-2.64,6.27-5.07,12.62-7.63,18.92a10.88,10.88,0,0,0-.5,7.27c.95,3.41,1.75,6.86,2.6,10.29.11.43.13.88.26,1.3,1.55,4.9-.6,8.6-3.68,11.93a3.58,3.58,0,0,1-2.06.89c-7.21.94-14.43,1.87-21.66,2.66a14.58,14.58,0,0,1-4-.56c-3.88-.7-7.76-1.36-11.62-2.17a11.09,11.09,0,0,1-3.53-1.44c-2.57-1.6-5.11-3.27-7.54-5.08a14.33,14.33,0,0,0-6.92-2.57c-3.14-.42-6.27-.88-9.42-1.25a6.32,6.32,0,0,1-4.07-2,23.48,23.48,0,0,0-2.51-2.28c-3.46-2.69-4.4-6.49-4-10.63.53-5.45,1.36-10.87,2.15-16.29a3.67,3.67,0,0,1,1.12-1.88c4.31-4.18,9.78-5.61,15.31-6.88a9.08,9.08,0,0,0,4.39-2,7.16,7.16,0,0,0,2.38-4.25,28.4,28.4,0,0,1,1.08-3.55,2.9,2.9,0,0,1,2-2.19c1.53-.38,2.19-1.54,2.55-3a6.38,6.38,0,0,1,2.18-3.74c1.28-1,1.27-3.22.25-4.89-.74-1.2-1.6-2.31-2.37-3.48-1.55-2.37-1.58-4.43.22-6.54a10.48,10.48,0,0,0,2.43-6.81,11.55,11.55,0,0,1,1.21-4.25c1.88-4,3.87-7.91,5.89-11.82a5.9,5.9,0,0,0,.1-5.35c-1.08-2.61-2-5.31-3.12-7.88a16.44,16.44,0,0,1-1.1-8.32c.86-10.88,1.63-21.78,2.49-32.66.58-7.34.95-14.72,2-22,1.5-10.66,4.79-20.88,8-31.09,1.79-5.64,3.54-11.31,5.17-17a14.11,14.11,0,0,0,.33-4.22c-.17-6-.31-12.06-.64-18.08-.63-11.25-1.24-22.51-2.13-33.74-.65-8.23-1.79-16.41-2.61-24.62-.19-1.92,0-3.89,0-5.83a37.92,37.92,0,0,0-.06-4.77c-1.41-11.71-3-23.41-4.3-35.13-.47-4.13-.34-8.33-.66-12.48-.29-3.8-.92-7.57-1.23-11.38-.61-7.52-1.34-15-1.56-22.57-.13-4.5.59-9,1-13.54.42-5,.76-10.06,1.35-15.07.37-3.16,1.07-6.28,1.73-9.4,1.38-6.49,2.93-13,4.21-19.48a93.36,93.36,0,0,0,1.2-9.75c.37-4.24.53-8.49.89-12.73a36.81,36.81,0,0,0-.78-12.15c-1.6-6.35-3.17-12.72-4.33-19.17a126.12,126.12,0,0,1-1.42-14.56,17.23,17.23,0,0,1,.86-5.17c1-3.76,2.11-7.48,3.08-11.25a11.25,11.25,0,0,0,.26-3.43c-.38-6.47-.82-12.93-1.26-19.4q-.78-11.68-1.61-23.37a7.93,7.93,0,0,0-6.67-7.54,3.65,3.65,0,0,0-3.31,1c-1.53,1.43-3,2.9-4.45,4.43q-9,9.66-18,19.36c-.71.76-1.55,1.4-2.23,2.19-1.79,2-4.07,2-6.14,1.11-3.3-1.46-6.41-3.36-9.6-5.06l-9.51-5.05c-1.1,1.15-2.13,2.18-3.11,3.26-8.14,8.9-16.75,17.27-25.46,25.55q-7.86,7.45-15.17,15.52a96.83,96.83,0,0,1-17.08,14.8c-3.21,2.21-6.27,4.64-9.49,6.83-2.7,1.84-5.56,3.44-8.3,5.25-1.87,1.23-3.66,2.6-5.44,4a6.91,6.91,0,0,0-3,4.95,4.5,4.5,0,0,1-2.92,3.77l-.72.3a13.53,13.53,0,0,0-6.71,6.46c-2.06,3.75-2.47,7.73-2.89,11.72a84.4,84.4,0,0,1-2,10.4,4.8,4.8,0,0,0-.34,1.27c.26,3.37-1.62,5.63-3.6,7.9-2.18,2.5-4.24,5.11-6.34,7.68a10.65,10.65,0,0,1-8.47,4.28c-2.23,0-4.46-.07-6.68-.21a3.29,3.29,0,0,1-3.34-2.39c-.37-1.24-1.4-2.14-2.5-1.84a7.87,7.87,0,0,0-3.33,2.17c-.68.71-.07,1.79,1,2.22a7.79,7.79,0,0,1,1.89.72,1.38,1.38,0,0,1-.2,2.52,3.12,3.12,0,0,1-1.21.42,31.27,31.27,0,0,1-12.69-.89,3.46,3.46,0,0,1-1.24-.91c-4.21-4.21-7.39-9.09-8.52-15.14a9.82,9.82,0,0,0-3.33-5.52c-5.14-4.68-10.42-9.2-15.57-13.87a24.32,24.32,0,0,0-7.44-4.55,122.63,122.63,0,0,1-21.87-11.69c-9.28-6-18.76-11.75-27.86-18.07-5.31-3.68-10.1-8.2-15-12.5-1.68-1.47-2.88-3.53-4.49-5.1a52,52,0,0,0-6.32-5.39,22.22,22.22,0,0,1-4.6-4.17c-3.89-4.83-7.82-9.63-11.84-14.35-8-9.39-16-18.71-24.06-28.06q-2.88-3.36-5.8-6.71c-1.5-1.71-2.72-1.41-4.09.51-3.79,5.33-5.38,11.64-7.52,17.7-.93,2.62-.64,5.4-.21,8.15,1.26,8.06,2.19,16.19,3.76,24.18,1.09,5.51.84,10.9.44,16.38a2.27,2.27,0,0,1-1.63,2.12c-1,.43-2.1.75-3.14,1.16-1.42.57-1.74,1.09-1.41,2.62s.8,3.09,1.23,4.62c2.25,8.1,4.73,16.14,6.71,24.32,1.7,7.05,2.89,14.23,4.22,21.37,1.52,8.19,2.82,16.43,4.46,24.6,2.79,13.88,4.34,27.88,3.59,42.06-.28,5.21-1.31,10.38-2,15.57-.17,1.32-.39,2.63-.51,4-.44,5-2,9.69-3.66,14.37-1.66,4.86-3.43,9.67-4.92,14.58a56.79,56.79,0,0,0-2,9.05c-1,7.38-1.9,14.78-2.61,22.2a56.76,56.76,0,0,0,.16,8.74c.24,4.24.61,8.48.92,12.72.35,4.86.65,9.72,1.07,14.57.19,2.21-.38,3.71-2.48,4.65-1.62.73-3.69,1.53-4.44,2.93s-.4,3.78-.39,5.72c0,5.33,0,10.66.18,16,.46,15.8,1.12,31.59,1.41,47.39a84.23,84.23,0,0,1-1.32,13.2c-1.73,12.21-3.57,24.4-5.38,36.6-2.11,14.12-4.2,28.24-6.37,42.36-1.51,9.81-3.22,19.6-4.69,29.42-.61,4-.9,8.11-1.2,12.19a11.13,11.13,0,0,0,.46,3.93c1.25,4.06,2.65,8.06,4,12.09a6.54,6.54,0,0,0,3.25,3.92c1.82,1,3.53,2.17,5.29,3.27a6.08,6.08,0,0,1,2.3,3c1.94,4.45,1.76,9,.88,13.57a36.23,36.23,0,0,0-.76,5.26c-.13,3.27-1.81,5.72-3.77,7.95a6.66,6.66,0,0,1-5.37,2.6c-4-.12-5.82,2.18-5.55,6.34a4.22,4.22,0,0,1-.56,2.22c-1.25,2.12-2.53,4.24-4,6.22a4.54,4.54,0,0,1-2.43,1.73c-3.18.65-6.41,1.06-9.63,1.53a3.39,3.39,0,0,1-1.52-.14,12.6,12.6,0,0,1-8.06-10.76c-.31-4.41-.46-8.83-.91-13.22-.53-5.29-1.4-10.55-1.89-15.84-.19-2,.32-4,.46-6.07a14.3,14.3,0,0,0,0-3.64,14.22,14.22,0,0,1,.13-6.83c2.37-8.6,3-17.43,3.31-26.32.11-3.55.16-7.12.62-10.63.87-6.71-.09-13.29-.78-19.9-.59-5.64-1.29-11.28-1.91-16.93-.79-7.14-1.47-14.3-2.31-21.44-1.24-10.48-2.68-20.94-3.83-31.44A311.5,311.5,0,0,1,166.47,617c.27-6.82.57-13.68-.38-20.49-1-7-2-14-3.05-21.06a16.89,16.89,0,0,0-.59-2.1H151.84c-.89,1.35-.79,2.87-.77,4.36.17,14.39.53,28.78.45,43.17-.07,12.52-.63,25-1,37.55-.18,6-.52,12.07-.58,18.11a214.13,214.13,0,0,1-2.8,31.27c-1.68,10.68-3.22,21.4-3.38,32.27-.08,5.4-.51,10.8-.51,16.2,0,3.89.36,7.8.71,11.68.55,6.27,1.31,12.53,1.8,18.81a19.53,19.53,0,0,0,2.72,8.48c3,5.19,3.82,10.93,3.67,16.88a8.6,8.6,0,0,0-.07,1.33c.59,4.33-2.12,6.21-5.3,7.75a4.59,4.59,0,0,1-1,.35c-3.4.84-5,3.32-5.35,6.68a13.09,13.09,0,0,1-2.93,7,4.64,4.64,0,0,1-3,1.81,67.68,67.68,0,0,1-16.64.58c-2-.13-2.77-.75-3.17-2.8a21.15,21.15,0,0,1-.42-4.49,6.11,6.11,0,0,0-1.56-4.61,7.94,7.94,0,0,1-1.91-6.13,58.19,58.19,0,0,1,3.48-17.64,10.56,10.56,0,0,0,.11-7.27c-1.49-4.37-.75-8.53,1.3-12.57a9,9,0,0,0,1-3.74c.17-6,0-12.08.29-18.11a58.1,58.1,0,0,0-1.52-15.55q-4.15-18-7.88-36.11c-1-4.94-1.42-10-2.07-15-1.44-11.18-2.78-22.37-4.33-33.53-1-7.25-.9-14.52-.9-21.8,0-10.48,0-21,.24-31.45.12-6.08-.73-12-1.38-18q-.75-6.87-1.52-13.76c-.07-.61-.16-1.23-.26-1.84a2.36,2.36,0,0,0-2.16-2.24c-1.19-.15-2.38-.26-3.56-.47-2.71-.48-3.46-1.53-3.36-4.33.28-7.46.28-14.93.87-22.36a64.77,64.77,0,0,0-1.52-19.25c-1.58-7.18-2.88-14.43-4.36-21.63a22.68,22.68,0,0,0-1.09-3.26A3.79,3.79,0,0,0,80,497.24a12.82,12.82,0,0,1-3-2c-5-4.09-9.9-8.19-14.8-12.36a10.76,10.76,0,0,1-2.31-2.8c-1.85-3.2-3.72-6.4-5.29-9.74C53.5,468,53,465.28,52,462.87c-1.23-2.85-1-5.43-.17-8.41,1.74-5.94,2.92-12,4.31-18.09.62-2.69-.1-5.28-.52-7.9-.45-2.79-.74-5.61-1-8.43a5.52,5.52,0,0,1,.32-2.35c1.5-3.87,1.69-8,1.86-12,.42-10.11.66-20.24,1.1-30.35.34-7.72.86-15.43,1.33-23.14q1.13-18.33,2.29-36.68,1.11-17.42,2.26-34.82c.4-6.2.78-12.41,1.2-18.61.72-10.54,1.42-21.08,2.22-31.61A14,14,0,0,0,65.23,222c-1,1.33.3,2.19,0,3.38L64,224.33,62,226.9l-1-2.15-1.35,1.5c-.06-.88-.11-1.52-.16-2.17.89-1.79.89-1.79-.7-3.24ZM44,93.45,43.5,94l-.51.51c-1.43,1.55-1.43,1.55-1.23,3.66L43,94.5l.51-.51.58-.56.05-.1ZM26.54,112.61l-.1.06.12-.06.12,0Zm-3.6,3.77-.54.53-.08,0,0-.09.61-.51.05-.07Zm36.47,47.9.5-.56.51-.53.51-.54.5-.55,1.1-.43.06-.08-.08.1-1,.46-.5.55-.51.53-.51.53-.56.54,0,.07Zm4.64-2.09h0l-.07.07ZM51.13,208.42l.15,0-.14.08ZM31.15,191l-.51,1-.08.1.09-.09.49-1.06.06-.07Zm8.17-2.72-.42,1.14L37.83,191c-3.14,2.59-5,6.19-6.9,9.7a3.37,3.37,0,0,0,.55,3.72,29.11,29.11,0,0,1,5.73-12,6.44,6.44,0,0,0,.63-1.41l1-1.58c.14-.38.28-.77.43-1.15h.12Zm-7.14,1.05.45-1.13c.16-.34.33-.68.5-1h.15l-.12.05-.49,1-.45,1.12ZM67.6,165.91h0l.08-.06Zm-31.88-38,.51-1.07c.19-.31.39-.62.59-.93l0-.09-.07.1-.54,1L35.73,128Zm30.39-8.86-1.09.44L64,120l-.49.64-1,.45-.13,0h.12l1-.52L64,120l1-.51,1.11-.44.06-.06ZM37.85,107.81v1.07a18.06,18.06,0,0,0,10.07,0c3.66-1.2,7.33-2.36,11-3.54.39-.13.77-.3,1.43-.56-.41-2-.79-3.79-1.21-5.81-2.89.22-5.52.37-8.14.64a4.29,4.29,0,0,0-1.61.75c-2.8,1.7-5.61,3.38-8.36,5.16a25.59,25.59,0,0,0-2.71,2.32l-.12-.43Zm-17-1.13,1-.43.52-.61a1.59,1.59,0,0,0,.5-.1A58,58,0,0,1,38.27,99.2a2.09,2.09,0,0,0,1.65-2,9.66,9.66,0,0,1,3.83-6,24.57,24.57,0,0,1,7.89-4.22c.87-.3,1.71-.66,2.57-1l1.48-.08,0-.31-1.42.42a33.56,33.56,0,0,0-11.7,2.43c-4.5,1.74-8.83,3.91-11.9,7.9a74.27,74.27,0,0,1-8.19,9.4l-.5.62-1.09.42,0,.06Zm23.72,70c-.2.46-.41.93-.61,1.4l-.15.28.12-.33.63-1.4ZM27.47,130.08c.2-.48.41-1,.61-1.45l.13-.38-.09.42c-.21.49-.41,1-.61,1.46l-.32.8.28.06Zm50-23.29.52-.28-.48.29-.22,0ZM89.24,82.22l2.09-.48,2.41-.29-.08-.36-2.3.68-2.09.49-1.62.49L75.29,84.69a40.43,40.43,0,0,0,4.88,0c2.55-.27,5.27,0,7.45-1.94Zm-42.59,42.7,2-.57c1.9-.19,3.89-.15,5.1-2.13l.07-.06-.06.07-5.08,2.15-2,.55-.21,0ZM13.25,170.3l-.55,2.45.3.06c.08-.85.15-1.7.22-2.55Zm32.82-15.51c-1.46.58-2.71,1.38-3,3.14h0l3.1-3.16,0-.08ZM56.85,127c-2.82,1.27-3.57,2.25-3.12,4.75L56.82,127l.11-.08ZM81.53,92.88c2.54.06,4.73-1.13,6.94-2.2-2.36.54-4.82.79-6.92,2.23l-.18.11Zm127.86,13.38-.12-1.16-.31.08.46,1c.16,5.46.07,11,2.43,16.08a14.4,14.4,0,0,0-.18-3.66c-.43-2.7-.87-5.4-1.35-8.09C210.06,109.11,209.7,107.69,209.39,106.26ZM63,114.8a36.55,36.55,0,0,0-13.93,6.85l-.06.09.09-.1a7.27,7.27,0,0,0,1.49-.28c4.31-1.83,8.63-3.66,12.4-6.59l.06-.06ZM22.41,154.16c1.58-.87,3.11-1.82,4.73-2.6a5.92,5.92,0,0,0,3.46-4.86l0,0c-3.88,1.14-6.24,4-8.18,7.47l-.15.07Zm2.11-8.47c2.16-1,4.12-2.16,4.41-4.92s.47-5.24.7-7.86l0,0c-.53,1.28-1.08,2.55-1.59,3.83-1.18,3-2.34,5.95-3.51,8.92Zm33.33,20.77-1.45,1.47-.33-.26,1.44-3.17A15.54,15.54,0,0,0,55,166.88a9.3,9.3,0,0,0-2.73,6l-.14,0,.1-.1a41.69,41.69,0,0,0,9.08-7.76,7.64,7.64,0,0,0-1.92.95,7.21,7.21,0,0,1-1.55.41Zm-20-77.83a22.46,22.46,0,0,0-11.27,7.48c-2,2.62-4,5.28-6.05,7.93-.4.52-.86,1.06-.29,1.9a32.6,32.6,0,0,0,7.87-8.46,25.14,25.14,0,0,1,8.26-7.84c.51-.31,1-.7,1.44-1.06l.33-.25Zm-8.66,30.94a54.67,54.67,0,0,1,11-7.7,63.63,63.63,0,0,0-7-.87c-2.3-.15-3.16.43-3.56,2.78a50.56,50.56,0,0,0-.34,5.79ZM103,89.1c-3.23.78-6.48,1.5-9.68,2.39a5.78,5.78,0,0,0-2.56,1.61A6.42,6.42,0,0,1,86,95.2a17.3,17.3,0,0,0-3,.37c-2.58.54-5.17,1.11-7.73,1.76A4.64,4.64,0,0,0,73,98.4,44.7,44.7,0,0,0,70,102.3c.23.21.3.31.36.31a10.31,10.31,0,0,0,1.24-.19,72.6,72.6,0,0,0,19.7-8A94.86,94.86,0,0,1,100.85,90c.7-.32,1.4-.61,2.11-.91l.55-.13Zm6.18-6.93c-3.5.21-7,.52-10.51.61a19.74,19.74,0,0,0-8.92,2.11,16.54,16.54,0,0,1-7.69,1.74c-5,.07-10.09.31-15.14.44a13.86,13.86,0,0,0-7,2.26c-2.8,1.72-4.58,4.38-6.55,7.22,1.85,0,3.44,0,5,0A1.63,1.63,0,0,0,59.45,96a7.77,7.77,0,0,1,5.94-2.69c2.89-.2,5.86,0,8.66-.67s5.35-2.41,8.14-3.15c6.46-1.7,13-3,19.5-4.61a78.75,78.75,0,0,0,7.45-2.66l.23,0Zm6.59-8.69-.23-.7a36.85,36.85,0,0,0-11.34,1.1q-6,1.44-12,2.74c-4.19.89-8.37,1.91-12.6,2.45A119,119,0,0,1,56,79.36a47.74,47.74,0,0,0-18.26,2c-4.61,1.47-9,3.64-11.47,8.36-1.68,3.19-3.18,6.49-4.74,9.75a8.66,8.66,0,0,0-.35,1.19,13.3,13.3,0,0,0,2.89-3.62,22.53,22.53,0,0,1,9.68-8.85c7.42-3.78,15.44-5.13,23.54-5.91,5.27-.51,10.59-.51,15.89-.79a57.55,57.55,0,0,0,14.12-2.42,37.25,37.25,0,0,1,12.41-1.71,15.85,15.85,0,0,0,4.07-.33c3.08-.73,6.14-1.6,9.18-2.48A27.36,27.36,0,0,0,115.77,73.48ZM79.4,490.4a16.61,16.61,0,0,0,0-2.86c-.53-2.85-1.15-5.69-1.75-8.53s-1.32-5.85-1.86-8.8-.89-5.93-1.38-8.89a8.59,8.59,0,0,0-.63-1.62c-1.76,1-2.29,2.31-2.62,4.59-.72,5,.31,9.68,1.55,14.39a9,9,0,0,0,1.17,2.62,15.84,15.84,0,0,1,2.6,6.26C76.68,489.14,77.54,489.85,79.4,490.4ZM92.2,314.46c-1.47,2.17-8.22,33.7-7.78,36.25.34-1,.66-1.7.84-2.44,1.09-4.37,2.21-8.72,3.2-13.11A15.76,15.76,0,0,1,92.09,328a50.57,50.57,0,0,0,3.59-4.5c.4-.57.83-1.65.57-2.1-.62-1.12-1.77-1.91-2.44-3A27.79,27.79,0,0,1,92.2,314.46ZM43.55,97.71c4.07.69,6.35-1.54,8.12-4.72a16.59,16.59,0,0,1,1.56-2.08c.49-.62,1-1.22,1.72-2.12C47.94,90.67,44.09,93.77,43.55,97.71ZM206,140.63h.71c1.3-7,2-14,.86-21.23a25.54,25.54,0,0,0-1.65,6.57c-.24,3.7-.09,7.42-.08,11.13C205.85,138.27,206,139.45,206,140.63ZM64.75,169.29c-.61-.07-.81-.16-.9-.09Q56.92,174.42,50,179.65a3.85,3.85,0,0,0-1.52,3.16C54.23,178.42,60,174.76,64.75,169.29ZM209,118.51c.07,4.5.15,9.15.23,13.79a33.26,33.26,0,0,0,1.85-5.76,2.68,2.68,0,0,0,0-1.29C210.41,122.93,209.67,120.62,209,118.51Zm-95.51-39c-5.72.26-11.52-.23-17.58,1.56C102.12,81.11,107.85,81,113.5,79.54ZM44.13,132.62l5.95-6.41C46,126.54,43.62,128.93,44.13,132.62ZM64.21,104l3.66-5.24-.33-.51-4.43.57Zm-17,32.62-.65-.31c-1.47,2-4.81,2.08-5.06,5.67,1.91-.66,5.06-2.71,5.5-3.66A5.51,5.51,0,0,0,47.18,136.65Zm-1.31-17.79c-2.79-.15-3.53.48-3.6,3ZM35.3,146c1.45-.4,2-1.29,1.37-2.79Zm-4.86-4.39c1.57-.23,1.46-1.18,1-2.28Zm-3.87-6c-.24,0-.41,0-.42.07q-.28,1-.54,2.13l.33.08ZM60.75,85.22l-.06-.08h-2.2v.08ZM55,211.24l.4-.05-.3-2.11-.25,0ZM43.43,101.3l-.24-.42-1.56.91.28.48ZM39,203.22h.14v-2.16H39Zm21.83-92.14.25.46,1-.72-.19-.32ZM213,125.62l-.39,0,.16,1.32.36-.06ZM41,142l-.41-.16-.33,1.06a2.47,2.47,0,0,0,.43.1C40.77,142.72,40.85,142.38,41,142Zm3.28,65.06h.1l0-.72s-.1.11-.1.16S44.22,206.91,44.23,207.1Zm-8.09-98.47-.12-.46-1.1.35.1.39Zm4.17-6.48L40,102l-.35,1,.3.12Zm21.89,1.61h.09v-1H62.2ZM44.86,209.87h-.12l0,.68h.12ZM114.12,82c-.11,0-.27-.16-.37-.12s-.2.22-.3.34c.12,0,.26.15.35.11S114,82.11,114.12,82ZM26.75,132.92l-.05.21.24,0a.71.71,0,0,0,0-.21S26.81,132.93,26.75,132.92ZM53.36,114.5c.07,0,.17.1.19.08s.08-.15.12-.23a.81.81,0,0,0-.22,0S53.39,114.46,53.36,114.5ZM13.44,175.88v-.39c0,.07-.09.14-.09.21S13.41,175.83,13.44,175.88Zm31.9,37.33V213l-.14.19Zm-5.65-8h-.12l0,.16Z" transform="translate(0 0)"/><path d="M18.23,124.74v.17c-.1.32,0,.1,0-.12Z" transform="translate(0 0)"/><path d="M41.45,219.18l.1.23-.07-.27Z" transform="translate(0 0)"/><path d="M21.38,119.51l-.51,1.06,0,.05V119.5l0,.06h.56Z" transform="translate(0 0)"/><path d="M20.87,120.57h-.49l0,.05h.56Z" transform="translate(0 0)"/><path d="M9.57,133.9h-.5l0,0H9.6Z" transform="translate(0 0)"/><path d="M15.25,190.92l.11.24-.07-.28Z" transform="translate(0 0)"/><path d="M37.82,108.91v-1.13h.57C38.19,108.16,38,108.54,37.82,108.91Z" transform="translate(0 0)"/></svg>